<mxfile host="app.diagrams.net" agent="Mozilla/5.0 (Windows NT 10.0; Win64; x64) AppleWebKit/537.36 (KHTML, like Gecko) Chrome/126.0.0.0 YaBrowser/24.7.0.0 Safari/537.36" version="24.7.17">
  <diagram name="Страница — 1" id="FqJ6xaMHVi8Rau__-VLt">
    <mxGraphModel dx="1264" dy="1467" grid="1" gridSize="10" guides="1" tooltips="1" connect="1" arrows="1" fold="1" page="1" pageScale="1" pageWidth="1169" pageHeight="827" math="0" shadow="0">
      <root>
        <mxCell id="0" />
        <mxCell id="1" parent="0" />
        <mxCell id="PoBiOrT_odg1vEccZ5-7-2" value="" style="rounded=1;whiteSpace=wrap;html=1;" vertex="1" parent="1">
          <mxGeometry x="30" y="200" width="260" height="390" as="geometry" />
        </mxCell>
        <mxCell id="PoBiOrT_odg1vEccZ5-7-16" value="&lt;div&gt;&lt;br&gt;&lt;/div&gt;Подключить eSIM" style="rounded=1;whiteSpace=wrap;html=1;strokeColor=#006600;" vertex="1" parent="1">
          <mxGeometry x="30" y="330" width="260" height="40" as="geometry" />
        </mxCell>
        <UserObject label="&lt;div class=&quot;markdown-heading&quot; dir=&quot;auto&quot; style=&quot;box-sizing: border-box; position: relative; color: rgb(31, 35, 40); font-family: -apple-system, BlinkMacSystemFont, &amp;quot;Segoe UI&amp;quot;, &amp;quot;Noto Sans&amp;quot;, Helvetica, Arial, sans-serif, &amp;quot;Apple Color Emoji&amp;quot;, &amp;quot;Segoe UI Emoji&amp;quot;; font-size: 16px; font-style: normal; font-variant-ligatures: normal; font-variant-caps: normal; font-weight: 400; letter-spacing: normal; orphans: 2; text-align: start; text-indent: 0px; text-transform: none; widows: 2; word-spacing: 0px; -webkit-text-stroke-width: 0px; white-space: normal; background-color: rgb(255, 255, 255); text-decoration-thickness: initial; text-decoration-style: initial; text-decoration-color: initial;&quot;&gt;&lt;h3 tabindex=&quot;-1&quot; class=&quot;heading-element&quot; dir=&quot;auto&quot; style=&quot;box-sizing: border-box; margin-top: var(--base-size-24); margin-bottom: var(--base-size-16); font-size: 1.25em; font-weight: var(--base-text-weight-semibold, 600); line-height: 1.25;&quot;&gt;User Story:&lt;/h3&gt;&lt;a id=&quot;user-content-user-story&quot; class=&quot;anchor&quot; aria-label=&quot;Permalink: User Story:&quot; href=&quot;https://github.com/abdullahproff/BSA21_1/blob/main/Shamray_Aleksandra/Ex01_User_Story.md#user-story&quot; style=&quot;box-sizing: border-box; background-color: transparent; color: var(--fgColor-accent, var(--color-accent-fg)); text-decoration: underline; float: left; padding-right: var(--base-size-4); margin: auto; line-height: 1; position: absolute; top: 12.5px; left: -28px; display: flex; width: 28px; height: 28px; border-radius: var(--borderRadius-medium); opacity: 0; justify-content: center; align-items: center; transform: translateY(-50%); text-underline-offset: 0.2rem;&quot;&gt;&lt;svg class=&quot;octicon octicon-link&quot; viewBox=&quot;0 0 16 16&quot; version=&quot;1.1&quot; width=&quot;16&quot; height=&quot;16&quot; aria-hidden=&quot;true&quot;&gt;&lt;path d=&quot;m7.775 3.275 1.25-1.25a3.5 3.5 0 1 1 4.95 4.95l-2.5 2.5a3.5 3.5 0 0 1-4.95 0 .751.751 0 0 1 .018-1.042.751.751 0 0 1 1.042-.018 1.998 1.998 0 0 0 2.83 0l2.5-2.5a2.002 2.002 0 0 0-2.83-2.83l-1.25 1.25a.751.751 0 0 1-1.042-.018.751.751 0 0 1-.018-1.042Zm-4.69 9.64a1.998 1.998 0 0 0 2.83 0l1.25-1.25a.751.751 0 0 1 1.042.018.751.751 0 0 1 .018 1.042l-1.25 1.25a3.5 3.5 0 1 1-4.95-4.95l2.5-2.5a3.5 3.5 0 0 1 4.95 0 .751.751 0 0 1-.018 1.042.751.751 0 0 1-1.042.018 1.998 1.998 0 0 0-2.83 0l-2.5 2.5a1.998 1.998 0 0 0 0 2.83Z&quot;&gt;&lt;/path&gt;&lt;/svg&gt;&lt;/a&gt;&lt;/div&gt;&lt;p dir=&quot;auto&quot; style=&quot;box-sizing: border-box; margin-top: 0px; margin-bottom: 0px !important; color: rgb(31, 35, 40); font-family: -apple-system, BlinkMacSystemFont, &amp;quot;Segoe UI&amp;quot;, &amp;quot;Noto Sans&amp;quot;, Helvetica, Arial, sans-serif, &amp;quot;Apple Color Emoji&amp;quot;, &amp;quot;Segoe UI Emoji&amp;quot;; font-size: 16px; font-style: normal; font-variant-ligatures: normal; font-variant-caps: normal; font-weight: 400; letter-spacing: normal; orphans: 2; text-align: start; text-indent: 0px; text-transform: none; widows: 2; word-spacing: 0px; -webkit-text-stroke-width: 0px; white-space: normal; background-color: rgb(255, 255, 255); text-decoration-thickness: initial; text-decoration-style: initial; text-decoration-color: initial;&quot;&gt;Я, как пользователь мобильного приложения &quot;Мой Билайн&quot; хочу иметь возможность подключать eSim в один клик, чтобы сэкономить время, избежать лишних действий и иметь доступ к новой сим-карте в течение нескольких минут.&lt;/p&gt;" link="&lt;div class=&quot;markdown-heading&quot; dir=&quot;auto&quot; style=&quot;box-sizing: border-box; position: relative; color: rgb(31, 35, 40); font-family: -apple-system, BlinkMacSystemFont, &amp;quot;Segoe UI&amp;quot;, &amp;quot;Noto Sans&amp;quot;, Helvetica, Arial, sans-serif, &amp;quot;Apple Color Emoji&amp;quot;, &amp;quot;Segoe UI Emoji&amp;quot;; font-size: 16px; font-style: normal; font-variant-ligatures: normal; font-variant-caps: normal; font-weight: 400; letter-spacing: normal; orphans: 2; text-align: start; text-indent: 0px; text-transform: none; widows: 2; word-spacing: 0px; -webkit-text-stroke-width: 0px; white-space: normal; background-color: rgb(255, 255, 255); text-decoration-thickness: initial; text-decoration-style: initial; text-decoration-color: initial;&quot;&gt;&lt;h3 tabindex=&quot;-1&quot; class=&quot;heading-element&quot; dir=&quot;auto&quot; style=&quot;box-sizing: border-box; margin-top: var(--base-size-24); margin-bottom: var(--base-size-16); font-size: 1.25em; font-weight: var(--base-text-weight-semibold, 600); line-height: 1.25;&quot;&gt;User Story:&lt;/h3&gt;&lt;a id=&quot;user-content-user-story&quot; class=&quot;anchor&quot; aria-label=&quot;Permalink: User Story:&quot; href=&quot;https://github.com/abdullahproff/BSA21_1/blob/main/Shamray_Aleksandra/Ex01_User_Story.md#user-story&quot; style=&quot;box-sizing: border-box; background-color: transparent; color: var(--fgColor-accent, var(--color-accent-fg)); text-decoration: underline; float: left; padding-right: var(--base-size-4); margin: auto; line-height: 1; position: absolute; top: 12.5px; left: -28px; display: flex; width: 28px; height: 28px; border-radius: var(--borderRadius-medium); opacity: 0; justify-content: center; align-items: center; transform: translateY(-50%); text-underline-offset: 0.2rem;&quot;&gt;&lt;svg class=&quot;octicon octicon-link&quot; viewBox=&quot;0 0 16 16&quot; version=&quot;1.1&quot; width=&quot;16&quot; height=&quot;16&quot; aria-hidden=&quot;true&quot;&gt;&lt;path d=&quot;m7.775 3.275 1.25-1.25a3.5 3.5 0 1 1 4.95 4.95l-2.5 2.5a3.5 3.5 0 0 1-4.95 0 .751.751 0 0 1 .018-1.042.751.751 0 0 1 1.042-.018 1.998 1.998 0 0 0 2.83 0l2.5-2.5a2.002 2.002 0 0 0-2.83-2.83l-1.25 1.25a.751.751 0 0 1-1.042-.018.751.751 0 0 1-.018-1.042Zm-4.69 9.64a1.998 1.998 0 0 0 2.83 0l1.25-1.25a.751.751 0 0 1 1.042.018.751.751 0 0 1 .018 1.042l-1.25 1.25a3.5 3.5 0 1 1-4.95-4.95l2.5-2.5a3.5 3.5 0 0 1 4.95 0 .751.751 0 0 1-.018 1.042.751.751 0 0 1-1.042.018 1.998 1.998 0 0 0-2.83 0l-2.5 2.5a1.998 1.998 0 0 0 0 2.83Z&quot;&gt;&lt;/path&gt;&lt;/svg&gt;&lt;/a&gt;&lt;/div&gt;&lt;p dir=&quot;auto&quot; style=&quot;box-sizing: border-box; margin-top: 0px; margin-bottom: 0px !important; color: rgb(31, 35, 40); font-family: -apple-system, BlinkMacSystemFont, &amp;quot;Segoe UI&amp;quot;, &amp;quot;Noto Sans&amp;quot;, Helvetica, Arial, sans-serif, &amp;quot;Apple Color Emoji&amp;quot;, &amp;quot;Segoe UI Emoji&amp;quot;; font-size: 16px; font-style: normal; font-variant-ligatures: normal; font-variant-caps: normal; font-weight: 400; letter-spacing: normal; orphans: 2; text-align: start; text-indent: 0px; text-transform: none; widows: 2; word-spacing: 0px; -webkit-text-stroke-width: 0px; white-space: normal; background-color: rgb(255, 255, 255); text-decoration-thickness: initial; text-decoration-style: initial; text-decoration-color: initial;&quot;&gt;Я, как пользователь мобильного приложения &quot;Мой Билайн&quot; хочу иметь возможность подключать eSim в один клик, чтобы сэкономить время, избежать лишних действий и иметь доступ к новой сим-карте в течение нескольких минут.&lt;/p&gt;" id="PoBiOrT_odg1vEccZ5-7-1">
          <mxCell style="text;whiteSpace=wrap;html=1;" vertex="1" parent="1">
            <mxGeometry x="30" y="20" width="900" height="130" as="geometry" />
          </mxCell>
        </UserObject>
        <mxCell id="PoBiOrT_odg1vEccZ5-7-3" value="" style="rounded=1;whiteSpace=wrap;html=1;" vertex="1" parent="1">
          <mxGeometry x="350" y="180" width="260" height="390" as="geometry" />
        </mxCell>
        <mxCell id="PoBiOrT_odg1vEccZ5-7-4" value="" style="rounded=1;whiteSpace=wrap;html=1;" vertex="1" parent="1">
          <mxGeometry x="670" y="200" width="260" height="390" as="geometry" />
        </mxCell>
        <mxCell id="PoBiOrT_odg1vEccZ5-7-10" value="" style="endArrow=classic;html=1;rounded=0;exitX=0.5;exitY=1;exitDx=0;exitDy=0;strokeColor=#009900;" edge="1" parent="1" source="PoBiOrT_odg1vEccZ5-7-16">
          <mxGeometry width="50" height="50" relative="1" as="geometry">
            <mxPoint x="240" y="525" as="sourcePoint" />
            <mxPoint x="350" y="355" as="targetPoint" />
            <Array as="points">
              <mxPoint x="160" y="520" />
              <mxPoint x="320" y="520" />
              <mxPoint x="320" y="355" />
            </Array>
          </mxGeometry>
        </mxCell>
        <mxCell id="PoBiOrT_odg1vEccZ5-7-11" value="&lt;font style=&quot;font-size: 16px;&quot;&gt;Мой Билайн&lt;/font&gt;" style="text;html=1;align=center;verticalAlign=middle;whiteSpace=wrap;rounded=0;strokeColor=none;" vertex="1" parent="1">
          <mxGeometry x="80" y="210" width="160" height="30" as="geometry" />
        </mxCell>
        <mxCell id="PoBiOrT_odg1vEccZ5-7-13" value="Мобильная связь" style="rounded=1;whiteSpace=wrap;html=1;fillColor=#FFFF33;" vertex="1" parent="1">
          <mxGeometry x="60" y="250" width="90" height="30" as="geometry" />
        </mxCell>
        <mxCell id="PoBiOrT_odg1vEccZ5-7-14" value="Домашний интернет" style="rounded=1;whiteSpace=wrap;html=1;" vertex="1" parent="1">
          <mxGeometry x="170" y="250" width="90" height="30" as="geometry" />
        </mxCell>
        <mxCell id="PoBiOrT_odg1vEccZ5-7-15" value="Стать абонентом" style="rounded=1;whiteSpace=wrap;html=1;" vertex="1" parent="1">
          <mxGeometry x="30" y="310" width="260" height="30" as="geometry" />
        </mxCell>
        <mxCell id="PoBiOrT_odg1vEccZ5-7-18" value="" style="html=1;shadow=0;dashed=0;align=center;verticalAlign=middle;shape=mxgraph.arrows2.arrow;dy=0;dx=30;notch=10;rotation=-180;" vertex="1" parent="1">
          <mxGeometry x="366" y="193" width="30" height="33" as="geometry" />
        </mxCell>
        <mxCell id="PoBiOrT_odg1vEccZ5-7-19" value="" style="edgeStyle=segmentEdgeStyle;endArrow=classic;html=1;curved=0;rounded=0;endSize=8;startSize=8;entryX=0.5;entryY=0;entryDx=0;entryDy=0;exitX=0.101;exitY=0.928;exitDx=0;exitDy=0;exitPerimeter=0;" edge="1" parent="1" source="PoBiOrT_odg1vEccZ5-7-18" target="PoBiOrT_odg1vEccZ5-7-2">
          <mxGeometry width="50" height="50" relative="1" as="geometry">
            <mxPoint x="310" y="180" as="sourcePoint" />
            <mxPoint x="160" y="160" as="targetPoint" />
            <Array as="points">
              <mxPoint x="390" y="195" />
              <mxPoint x="390" y="160" />
              <mxPoint x="160" y="160" />
            </Array>
          </mxGeometry>
        </mxCell>
        <mxCell id="PoBiOrT_odg1vEccZ5-7-20" value="&lt;div&gt;&lt;span style=&quot;background-color: initial;&quot;&gt;Подключить eSIM&lt;/span&gt;&lt;br&gt;&lt;/div&gt;" style="rounded=1;whiteSpace=wrap;html=1;strokeColor=#006600;" vertex="1" parent="1">
          <mxGeometry x="410" y="199" width="154" height="27" as="geometry" />
        </mxCell>
        <mxCell id="PoBiOrT_odg1vEccZ5-7-21" value="&lt;div&gt;Регион Москва&amp;nbsp;&lt;/div&gt;" style="rounded=1;whiteSpace=wrap;html=1;strokeColor=none;" vertex="1" parent="1">
          <mxGeometry x="410" y="228" width="154" height="27" as="geometry" />
        </mxCell>
        <mxCell id="PoBiOrT_odg1vEccZ5-7-22" value="" style="html=1;shadow=0;dashed=0;align=center;verticalAlign=middle;shape=mxgraph.arrows2.arrow;dy=0;dx=30;notch=25;rotation=90;" vertex="1" parent="1">
          <mxGeometry x="535.37" y="235.88" width="5" height="13.25" as="geometry" />
        </mxCell>
        <mxCell id="PoBiOrT_odg1vEccZ5-7-23" value="&lt;font color=&quot;#666666&quot; style=&quot;font-size: 11px;&quot;&gt;Ваш номер для связи&lt;/font&gt;&lt;div style=&quot;font-size: 11px;&quot;&gt;&lt;font style=&quot;font-size: 11px;&quot;&gt;+7 999 111 11 11&lt;/font&gt;&lt;/div&gt;" style="rounded=1;whiteSpace=wrap;html=1;strokeColor=none;" vertex="1" parent="1">
          <mxGeometry x="410" y="255" width="154" height="27" as="geometry" />
        </mxCell>
        <mxCell id="PoBiOrT_odg1vEccZ5-7-24" value="&lt;div&gt;&lt;span style=&quot;background-color: initial;&quot;&gt;Выбор тарифа&lt;/span&gt;&lt;br&gt;&lt;/div&gt;" style="rounded=1;whiteSpace=wrap;html=1;strokeColor=#000000;" vertex="1" parent="1">
          <mxGeometry x="370" y="293" width="224" height="77" as="geometry" />
        </mxCell>
        <mxCell id="PoBiOrT_odg1vEccZ5-7-25" value="&lt;font color=&quot;#666666&quot;&gt;&lt;span style=&quot;font-size: 11px;&quot;&gt;За красивый номер&amp;nbsp; &amp;nbsp; &amp;nbsp; &amp;nbsp; &amp;nbsp; &amp;nbsp; &amp;nbsp; &amp;nbsp; &amp;nbsp;Бесплатно&lt;/span&gt;&lt;/font&gt;&lt;div&gt;&lt;font color=&quot;#666666&quot;&gt;&lt;span style=&quot;font-size: 11px;&quot;&gt;Стоимость подключения&amp;nbsp; &amp;nbsp; &amp;nbsp; &amp;nbsp; &amp;nbsp; &amp;nbsp; &amp;nbsp; &amp;nbsp; &amp;nbsp; &amp;nbsp; 500&lt;/span&gt;&lt;/font&gt;&lt;/div&gt;&lt;div&gt;&lt;font color=&quot;#666666&quot;&gt;&lt;span style=&quot;font-size: 11px;&quot;&gt;&lt;b&gt;Всего&lt;/b&gt;&amp;nbsp; &amp;nbsp; &amp;nbsp; &amp;nbsp; &amp;nbsp; &amp;nbsp; &amp;nbsp; &amp;nbsp; &amp;nbsp; &amp;nbsp; &amp;nbsp; &amp;nbsp; &amp;nbsp; &amp;nbsp; &amp;nbsp; &amp;nbsp; &amp;nbsp; &amp;nbsp; &amp;nbsp; &amp;nbsp; &amp;nbsp; &amp;nbsp; &amp;nbsp; &amp;nbsp; &amp;nbsp; &amp;nbsp;&lt;b&gt;500&lt;/b&gt;&lt;/span&gt;&lt;/font&gt;&lt;/div&gt;" style="rounded=1;whiteSpace=wrap;html=1;strokeColor=none;align=left;" vertex="1" parent="1">
          <mxGeometry x="377" y="387" width="210" height="27" as="geometry" />
        </mxCell>
        <mxCell id="PoBiOrT_odg1vEccZ5-7-27" value="&lt;div style=&quot;text-align: left;&quot;&gt;&lt;span style=&quot;background-color: initial;&quot;&gt;&lt;font style=&quot;font-size: 11px;&quot;&gt;Укажите ваш email и мы отправим код для загрузки eSIM&lt;/font&gt;&lt;/span&gt;&lt;br&gt;&lt;/div&gt;" style="rounded=1;whiteSpace=wrap;html=1;strokeColor=none;fillColor=none;" vertex="1" parent="1">
          <mxGeometry x="361" y="413" width="224" height="77" as="geometry" />
        </mxCell>
        <mxCell id="PoBiOrT_odg1vEccZ5-7-28" value="&lt;div&gt;&lt;br&gt;&lt;/div&gt;" style="rounded=1;whiteSpace=wrap;html=1;strokeColor=#000000;" vertex="1" parent="1">
          <mxGeometry x="361" y="470" width="239" height="20" as="geometry" />
        </mxCell>
        <mxCell id="PoBiOrT_odg1vEccZ5-7-29" value="Установка профиля eSIM" style="rounded=1;whiteSpace=wrap;html=1;strokeColor=#000000;" vertex="1" parent="1">
          <mxGeometry x="406.5" y="500" width="147" height="30" as="geometry" />
        </mxCell>
        <mxCell id="PoBiOrT_odg1vEccZ5-7-30" value="" style="endArrow=classic;html=1;rounded=0;exitX=0.5;exitY=1;exitDx=0;exitDy=0;strokeColor=#009900;entryX=0.012;entryY=0.399;entryDx=0;entryDy=0;entryPerimeter=0;" edge="1" parent="1" target="PoBiOrT_odg1vEccZ5-7-4">
          <mxGeometry width="50" height="50" relative="1" as="geometry">
            <mxPoint x="480" y="535" as="sourcePoint" />
            <mxPoint x="670" y="520" as="targetPoint" />
            <Array as="points">
              <mxPoint x="480" y="600" />
              <mxPoint x="560" y="600" />
              <mxPoint x="640" y="600" />
              <mxPoint x="640" y="356" />
            </Array>
          </mxGeometry>
        </mxCell>
        <mxCell id="PoBiOrT_odg1vEccZ5-7-32" value="&lt;div&gt;&lt;font style=&quot;font-size: 11px;&quot;&gt;Автоматическая установка&lt;/font&gt;&lt;/div&gt;&lt;div&gt;&lt;font color=&quot;#6b6b6b&quot; style=&quot;font-size: 9px;&quot;&gt;(по ссылке)&lt;/font&gt;&lt;/div&gt;" style="rounded=1;whiteSpace=wrap;html=1;strokeColor=#000000;" vertex="1" parent="1">
          <mxGeometry x="725.25" y="286.83" width="184.75" height="48.17" as="geometry" />
        </mxCell>
        <mxCell id="PoBiOrT_odg1vEccZ5-7-34" value="&lt;div&gt;&lt;span style=&quot;background-color: initial;&quot;&gt;Регистрация eSIM&lt;/span&gt;&lt;br&gt;&lt;/div&gt;" style="rounded=1;whiteSpace=wrap;html=1;strokeColor=#006600;" vertex="1" parent="1">
          <mxGeometry x="730" y="222.13" width="154" height="27" as="geometry" />
        </mxCell>
        <mxCell id="PoBiOrT_odg1vEccZ5-7-35" value="&lt;div&gt;Выбор способа установки профиля eSIM&lt;/div&gt;" style="rounded=1;whiteSpace=wrap;html=1;strokeColor=none;align=left;" vertex="1" parent="1">
          <mxGeometry x="683" y="255" width="240" height="27" as="geometry" />
        </mxCell>
        <mxCell id="PoBiOrT_odg1vEccZ5-7-36" value="&lt;div style=&quot;font-size: 11px;&quot;&gt;&lt;font style=&quot;font-size: 11px;&quot;&gt;Установка с помощью QR-кода&lt;/font&gt;&amp;nbsp;&lt;/div&gt;&lt;div&gt;&lt;font color=&quot;#616161&quot; style=&quot;font-size: 7px;&quot;&gt;(если оформляли на один телефон а поставить нужно на другой)&lt;/font&gt;&lt;/div&gt;" style="rounded=1;whiteSpace=wrap;html=1;strokeColor=#000000;" vertex="1" parent="1">
          <mxGeometry x="725.25" y="342" width="184.75" height="50" as="geometry" />
        </mxCell>
        <mxCell id="PoBiOrT_odg1vEccZ5-7-37" value="&lt;div&gt;Ручная установка&lt;/div&gt;" style="rounded=1;whiteSpace=wrap;html=1;strokeColor=#000000;" vertex="1" parent="1">
          <mxGeometry x="725.25" y="398.5" width="184.75" height="51.5" as="geometry" />
        </mxCell>
        <mxCell id="PoBiOrT_odg1vEccZ5-7-38" value="" style="shape=image;verticalLabelPosition=bottom;labelBackgroundColor=default;verticalAlign=top;aspect=fixed;imageAspect=0;image=data:image/png,iVBORw0KGgoAAAANSUhEUgAAAFwAAABdCAYAAAAoswH9AAAAAXNSR0IArs4c6QAAAARnQU1BAACxjwv8YQUAAAAJcEhZcwAADsMAAA7DAcdvqGQAADb+SURBVHhe7Z0JvCVVee1X1RnvPXfuuZtuGpFZUYHgEIE4gAoaNdHEeXjGRBJUgkPIM2IcMAZ5DojRmGj0PTUiIogjTxQFJaAiRBtkhoamabpvd9/5TFV13n/tOuf2QKv3KiY//b2v2ffUqWHX3mt/w/p27TpEjUajo/8v/2USAI+UepMSS3zzdifKfHwPYe/8VhDOjSJfu5d0qOd3Rgrdz17fO8ronhHodHdFfHaMnTdk3Fw6nFPs7nPhCuOVa3gP3BzsvPikvaV783DI5/jvPs6L2t2N3wHpKc88cB3+9Yd+dzooG/ujTgaWOR75OcbT330t21bKUE8hB7wTvviAT3Thog6js5d0Crtu2pOo09OA3WQf1/72ym59DqD7o8G3GOt23+McjU4StnvAcpZ38mEP0B0AsAqAp3sA7hOorlPic0+xkQSZHxhXs4+B0e+Qhudwdvvs7Y4KaY2//DOGPUjU4G8PcH8Ces/F7K3haRgdi6/OS9RzULtJoVPhbxfsMHIpVTxYwzv70vrfVpnvi/vsT3CJmwH6hL6ngJuBeolvQXoge1NdvPYGPOFk4wvM7MRUwr8WlZXZ2VQZbS+0MxXK16qdNJVQrMXRfGDdfXAcVFrd7d8yCaDsKYXMlt7tXwSo9LmjlYoLw2j3MsBeDnaDXNpCIVG/wqzSLFEUA26nj4tSzjNOuebnPjyyH8qoC1fiIEAASNOqsqJPvEfl+EtKJn+oamMr+1tKUnxYB8Dx6VzMORafmw9AJR0In79VEjB9sGVOx/Spp+UmA4DeqcwoLo0B9hoVigeqVluvdvRiFG27Ou1RxTHgAnonQ8M9QAYcjOc13GPm/yKD7nr50mFki8Wb1Zr7hjrT31MpvY3Sz0FOdCNsQlyZN6arAV3ATZt++8R96PVjl8QG2a50HnTcQ0Y/iziRpMQVQyr1oelDz1JUOUXTWU1ZNKW+FAtAge0FOuAVaOM84ABnkHO/TeGz1Gyrkb5Pal2g8hzgR2NKi1McNajdgiXEdju+Joj30cjU+34LJcSlPSXTbA545j4ZNKCL65zbRnNt4bHabVS1ukyFytlKhn5fjU5TfXEbHKyg1nDcit1JVMwBj+xGqMp80mBn8Mvi3HmqT1+iWgILiYtKsjYaP+2T3A4PPduU1m5BxcINUh/7HZEodsDDjweqS98BL8JfZ5nDJQDCyWXX0d6uqeoaxYNnqdj3JCXxZpWSJQGPB7mUyCaCb8qo1Hh2WpsVz75UcbJRxYxInC6X+nfin8rgzIXgCXkPNy2oGho2PxBhLA2+T+oC7xs6IIVzeuftdry3L3y1lnnDDfSn6+oed6cduHrXeWAx23BeaHjXvc23xee5eJ+/8+nzw3Z3fxC259vS+/R5dq0+Z3elAsBsgKDZ/Zr4/Px4s2+bmpUj1T/4DjULRxBwm9TmoOm68v74L/Va3dvmHXzOSY1LGJ2dKkQVcHLljCZgFzwgOOgojXHjBca3zBV2RxQGIC+u0aCwYZBDsekVKXZc9mcUttsp5wRL4ZICYBbY8PXEjxBwzBCyorImx6xlMf6xg2kXHIxipYnvw/4ELQsUzPfiwyXg5voo3CNj0JuplSof0L3b4vaFwfb5LuxHbTkVMP3VHYvz9kYFszSK6WEZAlGeRRcgidTRP3uvirM/or5GiGUZXsD+wxhZEQPgSSFRKy2FQYi0AUC/zE3pQDAlCixzFx9diLiFoWo2aXgYhdDq3Qq4lelupwW4ANeikDuQVtBQaJU7FNHoQkNxtckByGt9Eu+WaA7f2IoOUFweYWi3g3UTK6xz3RzXm+JaMw0f2xEUtdHCWok2hSr+F4v0oAXZsz2hnW5vELe/u39vsQ/fuxRmAJyUP5tBQa5UpT3ePTkX658loBI8eGcAE6hCu6dUaG7iu0fchVPCyT/n5vsQg+Y6Pb/gS61Fu673pwvjnWIxkblqX9Aya1PKuNrndeD/1rAsaFaB8ZhTcbCljVsjve6N1+nkZ39b//6FupLKcjWyLdA0NJ7AlqCBoXMUa1dK/EnTPgZ2AItqc07TjC3cf1dbLDk1Dpd2tdL92KdktHnvglhJCihLB1dcKk2wx/cwfi7ch+I9geXFDg7en7Tw267At7b5UQLhX3gyYy+eN9j3QNt215p5k0WiaSVtXE2hX0m1raapVjTIHd0J0udsGICWK2nAbcs1bZlertedsUWfvqikq26o6tQ3/kSf/HQDS3mYWnXcnEa5Z617Z/vOKoAPqV6ew+vAkXGPkYaxEjTSMt+WAAObHmja6+1QS77/QWJr36tEKGtmE40rasJSEradz+QDmt/DihBqxIhRIjx4jC8SPpyExvzR54dPBiNcu0DpNXyX5LkrR9h0sSbRnfZKFfrqundLrP/z8ZW65KIVGp/CnZTmuN8sjcsto1iFHeFafnrrnC777njwCK3Sds1ENX3qszfh9aqq1KBvmmGgKsE1dnCTjkk33lzSZ/5tjS679CCAqGFBWK9d9Xxb3E6XHjC57KkoXekNkJVv7xIAdT1YI4G2BRGJODfv9y4JgHcwwzZq72SnwwgF7bD/83cu6jg1Cjy016hfXII7sFVQi2cTYwc/zM3TBW5c4KXuaDan//xJTc960fd1+tlXo7H/V6e++h7dP76MdhtVgnL7Hi6lzuZKXffDHaG/BSyjCGiEcW29P9btdzSUNuHB7bbKUNcUq2Es9MUvd/THz/uh3vqP39MrX/sdve3dt2u6OUSvnZxw+wCo44WHBj9PO/PZTw+EebbdWk/cN8O179KJrdHEh6yhEhpRcZ0hv+Eof0y9/cVnP+QSEWg9uvzhm3XJ2+4ct7N6OlYwgPFQW1/72n26+Y6OZoodTeD/Lr96p87+x2vVjIchKXMqVzi/NKOkVNG3vzkOPIxDWgkMoJU0NL4t0w/+Y1qFGveCRXSaWEOxpg03V3TOORt070SicYDcASP6t49v090bY3IKLIh2uA0mBcF1BKszPAbGigIbC4ThoZXfCOC5prjBNksXW0k1FGdsgUaG6J5pqt5S28cJoJ1qRw1c2+c+V9RnLsAPDvVplnjS6B/Tjfc0dfvdJYIfgTBBC7lHhoY3wef7P9ymLXNwkoEhpUMVbU2m9bdvGtet97TIjtFU3JEG6gTXApZMAldN0Lo67bAylEO7MrfP7Qhg54DnlvnQSp74oDeESppPFJ29RJXJt3FjM5S9xRrwy8Wa0yG1DRM9fM+jvQcgH4QouBxKX6LzPtKn0/8ev9pP7AC9GD9bUF1rlhb0rGcdrZ/ddLtuv3NcO6ekuVaNlsJW4OtmGgkAltD8Av5ydHBOK0ZreuSRawLNvfjiO/E5sZqk3XZhZjqrSL+/+fXVOnS/B7gHAGP4HTTdmh2AxpXmxY12zmEXa/+8AOnFJZLB2Wy1qqvfCWM6tnvQ1p3Hg66GLwzIfcu+rmXoHBNA257FXcniGRqPVnsyKLgWBiHp07p1NVg+jeFQJfW8Mv4969f9OyKd//Gf6ZvXtHXX9khT7TEC0SxUkqAIwLEHjuvaBMpGqa4ts2O64Z45/Z8v3a9/v3gnCjSqdrOmCgE/+HsGZ83arRobjeAEpNyhjTTOSgF/VzzdBT50ILQ/tHFefKBXfnXZBXjvTpa9o3NXAnjd0+yeXXLJ9TgvqdLSAwCMKaf7qTX7SG15YD+1i6txHX1oN2aKS+gkfALGfqvXQr/rdLoChTMTbkMNm5g/bQCIUmcGsGx9BEq0tIiLSIh4WYy10ABPPZRIapTsYBtGQ0CN4p0ERLMWc24A5laEai1ZtV7DgytRNvh7SozAnaSZ5/2XaqZxmLZsWUfzH0G9g4wHml3YQR8ZhlB6fYZ3dLct85iEvMWDlAMUco8eWGGQDHWXh/9aYo21yc4XWuJJ+EqsL1z2gJ540gU68ZQrdeprr9JPby9rFvbR6Yeelfp0411L9c+fuYaU2xU5le9XO5gxdZBRetCiAhqP30W1aawHig47Rjhpsp81B6YUSZo81VDs9OGfPZidkES1S6WQxEaFiq665k599pLrNY2Gd6DATpLqnYP0+a9v1VNP/ob+4KQr9ZI/v1x3jBNYSwxYCd9v5Qv9cj9dFuhifo50fXimFo32VEbw4VNvZYRMA/cUBxXLHiMc96iTza97HBu+9Z71euopl2vrbFmtVgkw5rTf6Eq96GWJTnvDMl399are/LZbdO/Wtloe9k4dr+pg21ET7c4cQ4LvBWiqDROZNrz8Fr5x/hkakjemSBNsGBkWYZ8dwXqKBObEczadYSwu1UixqSc/fp3e/6Eh7Zjbov/5+lTfu2Fa00mdSyqMc6xXvnhAH/3wMUp3bAyY5PVTevfyPI+33K5ue4ILpb1xmmi2s0qV1W9XGj1+t/bl5SEA3ETNdzYA9JjPKBrX5deu0TNecA2a0o+5w32jSXxnqhqmuna/JRrfWte2Jr4zXA1FxLALVJom1ijfe4C6HMCmNUz/Viwb0fIVo+rvL6m/BgMvwp7h3bMzbU3snNPWLTs0PlEnYBXpzRDZZIpRTOYmHCagzIywEI8hdO/A5UME4Gnd98Cc6rinTpF2YjVemPDEx0T68sUP12ATLbc/snsIbrZbTG2R/x7Aw4bvbA1Hs6gtqme6szWmxzzpm9A+jrboaAXw3O42A6J+GmOAyU7w0TFpsGdBzRqymDp8HlH0qEdmetUrl6CRqzVSq6hSLVI4yCBb6zPIeKNuYGPNzjZ1x6ZJXfi1Tbrw8x3AJ7gycMAAiGSgSBVXNmUQza+51i2JoYyOCYoNbJtzO3rx85frk+c/Gh25j4Z4msMNsl+y73ND3Vc+3O0ckt8M4J658+ia/xrojKAUyCRa5fvi+fhLsIz78dVj+vAn7tHb33GPGnaBVN6hk2GSqkN258YVCgBtVgKLwO9maVnL18zqlJMP0HNPXqdjjiiqFu1UFd4c8nED43b7s9eJPI2jeHdH9faQtk2M6RtX3qqLLx3Xld/Og22r43mOIkGSa0JcQDHQaMOe8h0zDHUcuLqgCy94nI5YO62yH67ArjxAoc9+VEa7U+6XJ3dOmezXm8FqOukSvu8E8JWqrHoHNf4+xzjutgch6+5uLUgKbbQGbSqk3J6RLNN23zLMyoWFAlU+4bcJW+0pvfKPj9Rha6s0BkSDCjPC1BMmdbhzlgA60b2AdlVxASceV9K3P/1snf93K3TiMXdoWeVObAEL4FouzTEO1/svdeUboV4fKuLABzvbtf/o9Xr1n0zq4o89Vp/50FO1Zg00knskDHTsefcwJZlX5jpQGTacFhT00uccokeuI/z6OPHD/UkiGBQxxbPZ7kGRvhfSFoVvdkPQ24XKogDv4IsjKo8JGgX4cJw6c0RzbU6UjOJnQDEdc+dHB36qs969UuUimmRP4D5Q3MnQ0TKDA+NY2p/oX84/Rl+6YK0OWb9B5aSpaG6MO45gvf2YvAHnPnkzEIPd3US8vzdx5PoKyTJo9Sr1x/fpOc+5S9/82uF6zcsPJkEaDNOzEH5OtbZZU2mPlYFdxxxb0ulvhunM4nay6TBA7k+G9ff6aFfkvof+g0Oc4hahmAuVxQFeJjkoUYqkfVA/u48iI1y01gOwzcv+2G4nhXpk6f7afF8Fl4Jv5GyDvRtqilsNHf+Yfl195ZP17BOnVJy2yY+gUbirYhmKSLoOR89pSg/hgFB3ezcB8AQXl+KK0yJ/qvBr11Mf0Rr8/nveVtG/fuBArRmqEVO6dfFhAHqKMD7Z0uTESugiLqdBoMcbkKtyjPYzKO5n0dbhLLlAIlecpJ3TuNo8+C9EFgV4VmCU8cVZZNNyWkwiQwNitNwMpNChcREAeQBq/dpwc0n/691bwzXWJpvubrDpmX8Q67P/drjW1x5QxRpUJc8sARQgl/rwvaQrpaa1yNplS+qNloNYb9tY5y4lQtuKTsmjrdynRclUKqMUcP++tK6X/xGWdN7hWmpfCEXMuM7tCgkVTOWW24r62zduVDNaoqjifQAUzdHuZuif++n+hgcmBOQM9pOhDKnXoSxQFgV4jKnHqFAwI6RTmETjE924cVQXfGNcl1wqXfXjYd26eVB371iucz92je7dOUFSQgPRvwwDTYoEHhr/jKMG9a/vP1bLh2YxCOggKtbp0DlbDKClSZsBxqSJ3VZuU8bwAJsmd4gX+XI6uwQPJJrHgPmcMJSAEeayAcMzHCmKoBK2l8zqaScM61PnHYmmu96SGiiRHxg40y3BCS/7zq364mVtbW+t0Q03VvXVq4u68EtNffmKVDsyXKi12U9zsgHiIfTTmm+rXqAsiqX42V2W2GcRPEkg4vKsrrmrrD8/9VZtuDFFI4bVrk5pBR2uDFV1z5ZpekVAKdonDqtE5pY0mzpoRaTLv/ws7bdsC8B1MzhrrcffKXKgYE6oaJBnGI343m7EuHY3d4l3GmKzCV9mS/C257oH1PFceAHLqbX1oQ+X9MZ33ShyMo5xaXtMWXkHn2UNDLSgoWSoM2VtawBoQo30/YUvLegj5x2tgalt6rSXEi+4H641xBPYy0POUiI6H6OJMWC7cymt/cJn2/rZBgYLKmgzZeQ0Xm9q09ZpGlJQBfZRDXgOkqg0tRT8P/CPx2jtipuowr6PawI6boo1lN6H7+b0LtyXP1bePQpn7i3hSVOow/wbS7QLApQsGeZ8XE08x1/ux6C/+hU1veJP12OtvnKIu2KJ+PYidczOFbRpPNPWOdyjpxJgKjEu9IqLSrrlagKk22UJvDxUsGBZFOBOmcMjt8Bb+Z5UtGOmQJtInzE1Lx1QUlYJ8CIyRhOplGwQY0fLN6lC1vaHJy/RiSdwpOGJrN50qP/Zm5p05U9JPD/iZCIHe4GAc00askDU1qBkZkzUDGgxwdgK47U3wiVWNaczz1inNaO0DeYSQ0CLnlrIEpUY8yLXlY1ruU5cmSBjbuJ6GpqZhDDsATiN2Wdr9i2LAtxzbincMzzCcvMILH/ynFirRwhOLScRAFPknKwf/w5nwRoS2MZc0e8M1HTQ+khnnXUcWjSnuN8TQwbbYNoX94DsgdsF3P1ZqABEeMgRrMV10iZiTolYkCX3g+IkZk4v/ICaQTxgdaYz33Q0PeHsyowaxURt2p0QBMOcjFedkfxEKXW1a3r0UQUddbTr7sHWbfQiZNGAOxB10FSHClvTcY8b0nvf9UgdvD+aAbgdGucp1pBRWjp1Gpxpjna96HmrtG7sPqJ7g0ExbXQ9zlrtZ+0M2Pawcen8vrDdK/7OftM2Wxrf84fdDJzndIpzDPgOkhtPq85CK0c0gd9OCbZxAdraGlK5QiJThsUQRNWa0AueWdFxR6EgPe9gjwbaHngHd6+E7WPnC08q60PnnKDSEFZsVoRvzgi6+QIntH6BsjjA0VzQZlQ9V2wujt+bGdFzn9mvz336WXriUatUxWcaajfa6mQztqYuLffpj565nE5OqY07KcC5osA6flXxAOU+2zrmAS5wn0J7Frdh9rFEX72irb94zd2aSg5mwFGQ8kxYMFSN/QYDAbxV1tjaLXr6M/DlYfWWW+4SMA1lrFTR35x+vD5w/oE6ZD8StQlbkM+wBlAnmESd31DiE3yWGUSYkvV8BEkbAbSvNafDHnarPvbppfq9o/bjHEB3JkH1MT7VBO7E32/owFU0kmNeLJP5IYTV9teVoPrcgdJp9mOA+6nJ16t+nOqMt1yvr141o1Nfe4121oc5hXvDVtJWG+DtFmFRM2095UljGglLM3Ad3RQ2H8iOTnv9wXrz309pKIKNtLeprzRDt2Bd88Xz42EEFiSLAtxmG/lZZbA7glNK49PxQLUK7ZbKcZEgOmFigAlT7H5Ij2t9mV76PyoEIq6hfVGxwY0dNH8dwHfvpOvBYkqOGal+dN0Bev4fXauNW1PN4b6+8vXN+sqldyoatEVsx6cPqFgZU4EkK5lYqgPWtvTkp1CjXYW1KNSY/5uZmsFVToflF5zMSbZw+m8rt+L5MwTPhckiXYrXG2JGvmkQmkTgzKc7h7Xp/gd09z34NI64ZH5LAoRHxyI97knLGSasw7ycRChLvb07aIsULs0zTIPEtmMCGeWGm1fq9a/9HuwUV4avr1ZSvfCVA3r28w9Uc5x9gp42W8pagJUOgVWi4cG6nvpkLHO+5TSRMXS54SfbAwlIWgOQnz4YGfEJzu55JbOdqEPBahYqiwMcN5ElaCZ0y/QpIg30Gmk5eyz069YNY2qmE+yjQ5xuRUg59vBlSzWCdrehV82agcbVwNlTD14IenB2kgs/Qo6sMZ7qpGN2Sx0/r+yyDicRwcpAIi1UyELZ7xWszhQ1ops2NvQnr/yqrt80p7pdHfd/wVOX6B/OPFajfQ2VqgVygQSW5BGKVO+fxAXjKpJUjzlihBzByuA5cjSWU3Ca2kSmPDGxRMUqStWCOpa94Mdz+SRT84/z7FYWJosCPC00VfQKVEfxclUz8Yg2TrX1ha/X9fo3b9Q/vOeO0JE48vPJ3MxRPa1dP4omYA3d4t5Yj8KSNGt9NgrG8PkSkR8NdDYSe97GLKGSM5GAQKjP1+PFALk4x4C3B1Qoj+mWByb02tN/oo0POAmrqtSO9YcnHaD3vvdxWjJ4H2M1SbvaZLsoS9HzQM4PuL7jhC3T2JJ+jYz5gQgsyx7DN4GhbLqzqpf9ySa989zNuvr2+7WdDHO2sxyVSsDBsWAnGerCU/vFAU5pN7bjK6UbbxnWK//qBh177E/0itfs0McumEXDZnIz7wYxc3XjtHKNO0Unuh0xuwBlzqPRsBUDm5RKuuHWIX3wA9J0YwWn10PHfV748F803XV7ej3y8mr4fQZFvX1zpNNO26bvX9evNhZV4tonP3ZI5567Qkv671dU9/w2qT0Mxks1rOWdjie3CJy4ST/rXLq0psEhu0qsL8QWW0FH9da0vnn1PXr3B5s6+dn36zFH/UDnfXybstIS2uEXB/sBHUAWKIsCvIA2lSolzdbH9Oa3fE+XXD6j7fVBEoam2hWCZZGA6qc4BickNXlD+u3iADzMtllRQSzn0bCVVqJGOqM77u7T//jz7+usD9ymd77/FmLDIZyGn6SOGMsKoxWaa9ANP1rVN6HNUMy/fN3duvr6TcpwL8VGR094VJ8+/+/HafkQgS6d4ny0tjVIe1Zxb7TfHJx9cXBVObD9uJNShfazP3/D2AOcYqhFErgWNHNGk/j7e3dGOueDG3TRJbjBIS+FJv1vjnD+wmRRgPsJeKuzXVPw1+9egzPge+o3Jkh24hZuBKqX+rWUYAshnAEU2lWmAx4Df0V7DJgBjBkgJz99A+v1nndcr5tuH9BMpa5/+exGffQjG7m0Rn11znd9BtzX5i4los6ND6zVqWfcqMt/uJWeVMkB2vq9R0gfev8xqhXQ7IxcISbQkf2qShaZNrAa+9sGPpg2eREQSVpgS1hOoYSS2N34oQpnxVid17949rUSOZ+gj1DL6UZR37uWgaxgJTCdUmEytGkhsijAUzcuLsO9I7irV4HEKkVl9nsdBx0p4CPJLBOoo1/xtBZ7cihJPFlPw+lGwW880LHAdBI0Eh/dmJ3Qc15ysMp9M4rICKeo6g1/f4su/ObdKlS80sovdVFw+hmc0xq/Y2pUb3rrj/S1b+xAEYY43tAjDh7UJR97sQ7ZfxZTn8CXL1HWTHEcniKYJv7Mhcm38OTG/8EwOlzntzDaKYASuGNKSvvRIb5HKtNUCJCaDLifaZbSPvUVEp3wpKrShuHzsj4rxMJkUYDHnVF7DA0P36e3n3WCTjl+TLWorgFId6FVBWR8tv2i53mRkB7zFyqLu2lgoSDpp/ZoSjBbUm+1avDcRE85YVTnvuOxGoaFeE48Kvfr794yrst/4AVB+EtAKUYzJC51THtAZ559ny79Sh3W4CdDO3TY2mGd/8EjtexhG/DRuBK/B5Q6myUIh27uKkGjbZ3tDoNVEDqkRjKtuvM567aNycLguA9ehFXBEgcIukv7U535+qP0nFPWExNgZIUhlOA39EzT6Xw6N6y4UdOjDprRJz66v6667hCdf/5Svez5w3rEIea5BCdrkN1HcC2RtmxFO+g/KkdnSmifHxCwabuFgkV0vhpt16v+dECnvWK9ariQBtp/90RDf3bqJv341kG0f4mi5pha5Yre+o6KPvF5P5mpqY17O3j1oP71nw/V0UfuVKsxq2oJjW9D6oqYetmvfuwpubOzXRJj3A44x+bxbZqY9mNC2hMAz2NROR7WiScM6YzX1vS5C5frBz87RGf8FUlcfZuKbRTGxmoqu0BZFOBeZVuqONjNKeWGw8UJPXx0QC94Zk3/dN5BevPfrUGT/TQk13A33jpy512zmCj8Hf9ohxgBqLtcKDc5g4DrANuZUqF+l/729FV69cuXosnwdCxm49Zp/dUZV+iO+wbUquyns84u6aP/+9owSWY6t27ljP7lQw/TYw6mXQTjmCSl1Sagmn1kgww+oAYF2K3QpriIFTHgHTLkuDyoB3bE2r7TWTTMyW3nPA/KuoPH9al/f7TOOnOlTjxmWCsKuBSoYJH4EBVgPMksrMaWvTBx3QuXwNOwO9S1GC9FEyqqYrbl5rQqmNfD96+JflBrMQSl/JFXpI33Tmh6rpSv63ZS5DUiViPcBK3lu6kVdRLc+vWA3vyGR+ipT1odTKDEAN3400h/+cZv663/9F2d/79vAMgyjquqtcsbOu/dj9YTf68E8yC4Un8xLoUgHX6piHiQ+onS3hICbzFku4Hj4xJuumlS0zO2SD+nd7OAhkPLloxp+ZJE5bk6/aRfDdyV2VO0jLMKKCADNr/c75fLogBPCZAtNLWJbzNPFj7Zr+pFmJ3bvd/yJYCOJieNEHRafmABwDumOrr+e/eQ1dMVmEkhqcAI8Ol+CwKtrDiJoc6khDOtFDVcuV+f++hROumoQYJhQrba1He/W9Q579uhOWKFncEIgff8c0/Q057OoMKro9TU0a+mw7VTkhoAixI/H/Wv96D9tN8rx1IUwT/mYIftN4qTYklTjUjfveI2NN5uBBLgNSjm6fTpyMOgkg0sJ8ybmJl58m6K8wi0qEfiuXV2LVQWBbjpnC+wBoTcwBSv5BkS3AIweAZuyZAfZ3HI3IAMyY946/W2PvmpCRrL+Q6csZ9tjlAfmuKA053mVLJMiYNopaCBwfv1D+ceqGMPXho0t+01ftmwSAM0ymC9++xD9LSTAKXl55V91Es9/hWLECxoQVjKgDZ6TTr7wouv5th2ZnYrpQrtY6D729p4X0Pf+patEYRD2SVrRnEtMJd2StvQ5kZILdxDD2LOTuw2FyqLApyakQxXgc9l+P0yVjpNtK52tHHzqF73mtv0g+t20hE0xH6cjhl4Ly/71lUV3b4R4DwJ5AfRfgbqhfA2/eBnAcrt9jLhsA5kUkc8rKV//vBBWr9/mdiAr4wnNEIa/Q9/v7/+7KWwi9kdAA5ApZ3U1cRi3B2+u05PI3vagO/Bj+dqwj+AIkg3m9heA4sqD+ub38o0UfectgEMnZyX955/mz7wAccP6m33qVYfDZbiemJikUEPFrNAWRzgVByieHjSTgzHv2b9d+jrX63p+S/6vi69cqPq4Yk7naSz5u2BDWCKO5stXXLpvSqv8KzbDM3dxHnWdjhjgUBbMGizYDUMcAxSHQ6BNTzykKLedfbBWlmFllH1m04/WC9/8X7y243sQVGreBTPSmItBtYabeC8jdWEd4v8cgDtMjih4MJKlYYqQ5Hun+zookvv4rif2hjwPUHf3kz01ndeq9ecdpM2TRCXan5D2srUxQGz7zgzWqAsCnBz57AszC/YuFGQ8m//aISA9lPdeHcNxkcjaEv4OZDQQWdypkx4PPz6RReO675NY6TkfSRA1BXM3Npn1bYpe+1KHU121uc5E4YLNvCMp5T03nc+Sm983cN06qnrVfGi0rSgFplj4pm6QhWLgl3gqvKpY9fbq5ua/YDbx9wm+0X+c2xJoJUXf6mi6zfM5jOI4UD3M7QJBSPJaZLoXXhpW6f99c3amozlgNPSfAB7cz0Lk0UB3nbgCFkVt+EuDXzbFz8/oa2TA2qX7Z/z9Xa27LBeEtP1Hfwgwnz7xttqescHr9E0Bz3pk6FpaTKIaS4PfSw40cCKMo5n8PWYAS4yeLXmjF54SkNveu1ylVtoYgvNIicoFdGu8GjMyRbA48oigljkrNED6ilUP7DuYFGk5km0gnZVOd+D3afbt9T0zvdeQ0wsB+djMMJKKv8GQGi7mQx9YV87GtYPrynqumthMR7HjDb4IEne/C+YLEAWBbgnfry8ze9ZOth5acHY6BDNR7u8AJOss0AHHd0jNME/amMfnqRoNVqSlCZ00ed36qorCEQErEI0wG46lcxhLJ7Thtva/wYNs7ZRUdBIOsnxUonjMAS/lWzQrIThpdag1XTFrgwtzh9IOzy6e14q0R+mFJylRmF5RhG2U9L577tb2x7wnQi+EcqiZVgVvrm9jKr6cFnEK1PIhBwh3qlyqaUlS2ElXsRqHOh/eOcURVuoLArwglXXANAxPwUvo5HPfeGMDlrX0CAaWaUhNU5ZVStq3RI3dgenA4D9s18lhL/umB7W3/3Nz7Rl+4G4i0m6tAMtRKvIIrO6X3gikFkM9rww0NZiNNYlPNm320AcUxy8DFt4PdBxIQyaxe3lI+WKFgpCYI49YMUpXXBxok9/Zlu+jgUWhM6jENtUAbuh6latGWlphMsHGZxRErYqPPfpJ0c66LC8TzQ6lDCs+TzygmSRb0C4Yj+PtBaZ8vVpDs24/daqfvyfmxRXi1qxqqaVg0Oqjvbr7e/8D3ykf7QA7fWTm5IbGKkEbz7xCWP65CcO0PAQ/pVsr9QZVAbjiLzQMqCEjobBBUgHP+4aR9Zsz6b7iZAzQvaGc/yEyY/2Amycg82b+nEOBwDZyzcagTmXB5brK1/brFPPuEvjk+QU/AtPbQKPr2q0nOp95z1MTzpulTbf0dB9Oyc0OZ7Rzky//4Slqg1MqMY9bVkW39MLpPzjEAtZ6ra4tYXW8OArKQSlYErxIFoySZpeVj1hvOHI/e1pfHpJP7h+nV7+8h/prnH/IB9UzPPacOxOi2aidc97WkXvPPs4rV61UdXEP9WHX3fd9p+0wO2yeLG/l1p4Bau1N8GyvIK3SFD1WnSL5629mjWPefY1XEtdYYhTAnqRAFupAXZVp59xpe6fzemqLdbTznHin/go6nmnDOhjHzkEVbqd+quq079Chwza073QQid5nQ4WG9qGgjg4WwFgRw/52kKcGw1kILwAPdAtOktAKth3tqFZ+MnwdgjNLfF51BFTOvPMQ9E9GlPw+zMA0qRzBhMqdcllDf3VX1+lzVuHFXt9Wctcm3MwVdPJ8GTInLcIG/C9AJT0lUAKffbyNaezmHNmkzbQfjMBdtOmnW2swUs04pbnU6bJjqXPXdjSa990tTZPk636YQj//Cs+nsH0I7fDHp7pnPccqUrrAQYJFsT9K+HHCibBrRLOV0qe4JuFOOb1LY4ltjyO2bpCPDHA/v5gWRzgwaW4IlfKp4F2Cd9tzt5Fldao9gBYlTS6bFjFKj7aWkc7I3fUQLGdRH266qpEf/iUO/SlL65RuzaMoe5E06aDLsTJkDog5Z8zaoWOci8nTJ0BumZgYfsFLK1k5lEhAOMaYDBlMt4qQdrvJLVJlLZML9PZbyvqtNNu0LYJBoj94U1md8dPn2i5x2sQAlDs4/qyXydfwTmeaKNvdltBTRwnrFHuiPe5x93YEfDYtS//fLAsDvD503smsu/LU1L5uNLUtqkBveNd34cR4ENpuH+YoPfqRljWAPgtAtm9OzO9+g2X64V/fjM8/fEwgkNVb/kHdTFZNCmGUVT5Z1cRHhZ4UU6RoOyf+CBYd9oMTwYwXgsIc4gBJWWgWslR+r/fPUhPPuUavf/jtxF9Skq4bwk2EjDpCVZkffjh9Vv0r5+4GwLmxfZTKobJtn2I40OQMGKhXQuVxQEebmQzN+A2431fXih7deGAPv/FTbr9Ls7Fffg3V9wsT/7nOoBdkCh5neGsJrQTFvGly1o66Tmf1d+8/cf68c2jmoSf1yucD8cPRpRB7cC4aD+Pxsee9ELXbQFeg57ix+pQwM07V+hzX+noBa+4TC945Rd165ZUraJ/8JVBsgdpb+Na2tLFysVvwCVc+6lP+udE+vCcbuU+4liQ0JguDpacMS1EFhc0582lJ3t/z8X++bb7Vutpz75cd4+T3Zk+2ZX49K6p+em+czT7bL9naR9vF23jKcMqYpjLUY+WXvqqJTr294a1bGhUfdRbrZgjzWL2gbdorlFSE82ea3sSalyXXLJZX7gg1fap/KeQLM68g2vo8WVzchpjkK2jfvXEzfIAlAjMr3rJGp13zqOk2VsZILurvaXXb1/X7b9dazaApVmBRgia76Gdfk/z12EpXbD2lO4NdxNr2ne+v0Z/+KffghK6Q/l+r7muolorlg1qcqKhSfxtEhN88bllzQU/n/pX12ig2Yf5LR5a/QNReBN51dLR8IJsH7iVvByavkzOtjQ+Vdf949s1vmOGuFkGaFwEeYL9M9GROjygsBLqLMBm/KLU2qUjuPu2tu4wDW8E4NEC3E2sxz6yqMu+crz6km3sDCxgH9IFvCemhQsAfHEuZYFSLE1qzeo+LRlhOx2lLaWwyH2/kWX6i1cv1RX/cZjed85h2n/Mr/jRIYB1hlcKL8vXKfADvruZbu7kbKZb796hq354m772nRt18WUbdOHXN+iSyzfo8qtv0XUb7tWmLXX8flFNp9swDi9hYyTRblwXuXjKdgnQ+8lwn/aE1frSV4/QZy4a1XHHFFWDVTlNtzqVGZDDD96PQSWUFgz4vqQHtK/olYXJbwTwDNr18ANm9I/nHKGD109o1XBBz31GQRdctFZve8tKrUI7X/DMkr5x8eP1sj8dohF1AiWgeOlcjE7jA+zrw0MEtj2n4k5Z1xqY8BxWM4sGu/jBuV8PdJ9toX4brYCbyv0XgbmDywlPk2IN9TX14XMP02f/+RAdvHxcxx2yXl+86Gh98IOjOvrhsUYqmU58Ukdn/s/VsKPtKPfC1wwuVH4jLsVJis20VejXjok1mpqOdMBagmZ7J7zWy4KdPcI0iIDX3HKIjj/5y2h0geRiGKo4DUgEQr/tDOAOtn5cRyMJamivwQ34s8O3dmzgoNeG84VdPgfXZB8B+EW0OjHbwLRPPn6tPv+Jg1RL7+Ee5vZ+s7QK0SFAz45pK2zpgNUF9ZU3MLJ+K87TuvuaJ3lwn+Gw/30upd2ZQNNq6ic5Wjlwhw4/4C5p7la6NgPjoAGe4CovBZ9B3XfPOH4cVgBjSWAeWUoncSd+86BU8k9q+3EXwY1AYH4T1iei6nmh42SsdtWeEnYg9sxkoUBwChrOOezrD4tkUga/o+3+LacSVtWP9mNZZaykkNyv4dp1euRBm/DbNzN4QFOqoDT7UrBfTwLgIUi7brSk2868Y/7Mv3pHd2Nv6Z21q5RKaGoTRNp+rxMuMg27INUPb0W0PeNYQ1uJVn0Tuu+Bu9VJGgT5Ip60zUBZWyOtW1bQS553qI47eqXWLKtogEBcdlYIQP6ViDID4OegZjme2hruS3TY/iN6wSkH6elPPYhjRYKln68CqNf+MaC33LVZO+v+iVISIv/if2kktMnnVjpDyqYm2UfADf/jFz/U+Hm08MF99kOTXJONE9t85AmVj/uMXFnmNTx22mXguydkjro2/fAN+Tmce1/SQesKqEm+5LhMkuJaKE7ZzV2p1yl1SjDbdC/pSFSjqezr76jtFVrEsDf89eH6yHmxvvyFTP9543p94/KjtX4FriWpoJlxeEjddnqNhrzw+WPasOER+o8fLNGHPjSr8/+pouOOHebQHH23RXHPrKKJmaamW/Dxgl8ftAKgFCbkbptdDO2xCzNZD9bSo1cLEeMTzI57AWyocw/x93nAOcGA9wBmtJpFkgW0CYpsKDhkx/nrSD6Q+Y0pNNCruPpIy8NSBgZoEjCKrX698NkjevmLlyn20gRnmbORHr1uiQ7dH52jTfLr5QBl/9zPUB1/7EothyuW5koaBsr9yonee/ZhWr/GVLCoWfyql3eUCJ59kR/hAcxDLfbVu3xdt+SYhhLEqjIvHLRJBDxsHj7UBSlMOrj8GtJ93JUHEddF/bMFPfuZD9ehB8zhOwdwADU99TEdvf30R/H9FtyR58BHVI36Vc226LgTPM3aZqBqwa2knTktG+voiY+nrplMFSid/LRnrqDHHDqpt7z5SBKmTP3VYQ3B7//iZct02Jqx8P7+b1a6SrVHcZ9xMDlL4WuhRWfQutmvq7zj3Sh5DnAgYwFwLuqB9kvFN9hbbCF2J9TngaSuKKmpUdyh+ydG9Y2LhtVfa+qkZ04AkoMl6XtzBl9vpsG1UMnvXlvWSc+7SS27ATJTp6ZPOLyo73z5UEBkX3VGWQOmgAWk6YDafbFu+ElVV14xo0MPXq0/ePrNDGRffqnfnliQ9CzzF4vjoHXIi/Rns1VherYdPzb01xjaf3smcR5wp9bO+Aozl6i041yu5GrPWVA6Bc954NP8aGlB8osAtxW5s55dpF7OTYs0CMbi9zl9Py/H8YNqP+RIiwQuLzEpzmpra0AvefVt+vaVdRzHEPt26t1vO1Sn/2VZrXHiA6wmLNghcSoRTNttv7zrCS/u4ac+jmU4f79SEmYsFyQLO8/z4ing2uPVo+UqrTgL9vU4DlhZuV9A2ZMRSMaoxOHBLi3ynHehGR6iBk7rwsn+uY6Fiyvfu/jGfM67K2qHZ1tLww++AJJn+fwLQX585jcbUr92As82xUzbkZYvn9P7/9ehetFzl+uwA+f0nncdrj971ZjaM/j6/qLKYc6csE+g9jRBwYqS0B9zemo1hXTO4bmbXe36ZWVfYoXaq5izkz945VZQ1hgKjJIGdmJcnby5bdZwLzHoZWdR8yJlO99KKu4n336iAdgc8w+fe4HlQylgOd+l+bjiBxzW+xjL8k6swVO0fqLieew0HUFBRmmq34yYYujymb8sob2eJAsPSajV14VPqgtalu8On9zV9varS6+xu8Q/ipYSwk2rZ7Ll6lvzN1jW8d2juyRoeES0948A+H+i0YmXwlJHck0PFbtpLj1oHkpx/XuWfBaRbTDyT55GoU3OCuFKSaRqmqg/24YvvlOVZEdgHlm7pBI8HzPoXoP7cHttQR4Eb+5RfK+HWoxRP0rh/6mSJ+TW57v3kgC4f9PJYJt2xvGBaN6R9J1DNv/gb917/Pl/hQQ6ZV9v68LnZWVSbAf0Sb57IJw4QfPKcOzYCxkA1C+ttslu+RdDaX1d3mbX5SD9XyB+lRIvkBAHK6XD+f4LAE/RitTug69xYakKlaPolCkZ6mD+Dd1Kw7uIuRbuKb19u5cFCtUHX7JH6cYNxHoa/i8hcPFCtpTDgF2cIZnhM1umNqf5d/ALYZlbjU7aOjzv4ootHjTnFnv+W1Qbf5H02u9abU34hk4G7SweQQ9Iovib38+Sx48AuKcMnA3aZwe/WjuejpD2enlYYZpKGBBndeHi3Ytl7329/b9c/FAitySCI00JjgDXZvfmbf8sU4tM0fPrGeE//OaWJ7TQfmexzma9kCh0he122c84OdfHATo89HD9ITjbyXRLsICFyoP7F2iep3NtiF5ilkFxoa7+f7GVyidIpZNhV1OQAq+hAXRbZlBovxuKuBl+TTqFraSkzpXCOhWHn6NpLVPi4ISZ9nvdBuflpSduQM/H714WIXv2petj7XeBhmLyGO6413n7Ku5MOL97fbBQX7z3ub+m+DWtFIDbKGniSbcKduYl1TpChaEnsG8ET2HX5pvvKtbvfKhTv8rMVz/phiV0SJALIyeoMHasZstFtUvTsACADJTOgO7SkDB4exX+LqhYj/cuufZaG+wOcBAU6/6+zt27+Em85wBd7E56ZV/n7qs9+y4PllhzlCZIeEoWHW5laldGVR78YyzssWraCrPcWnug9+6aJz5w4Kjk9dV9YA/fhs9mrVhV3Em7cTGjdwmxZ5Nqfl7mTgQ/687YQ/nzV5Pg/vYW2tfb7aYG2Xe/HyTz53cl9PXnXBuOLUT24X5iLwWhgiyCwvpV+GJF7bHTSbKOVKO9AldSRnHJDVAWzxw6rwiTdmZbBtwswCtZM090OuX2CikDnzVV9iA07lI7ukL9s58OAIf1gvZj7s0+2EvHSxYWIPvs826j0DueW80vRyjXI87Pv+Sfln2gu+suv0T80AN93iUd1QcaStrrCOSPU1/xOBUrh6nZvwqXnONSJONt+x3PcK1XhDnu2HrBzID3qNMud+B+czKsIIxw+PUfaBk8N02gj85MOQ+Ki/zqGv5bIU72nIyFeSRbd0JcQ1MLJDnFUfYMwPAqKoVJOYu1Px8gxxNL7ibDZg9wjwQHcsSDhEmreR7uHbCEoLkEMi4O8R4W0V6gNv+2SuZXkcPUtBHrKaMXNVnxzPOJEcajB13Aqwd4roymqXsAnr/Lzhdf2ROfS2VBwg0xjZIDQb7LlMsD1P6vSoj+m8S/J54rau6uAr0MQZ1NcHNma9qchf/hlGUX4J4bsjiU57kBQTQHvDtyuwMeFtH4Oxd3tdy8OL+RH4ZyMX+z8Auae0t+/u+EJAYY3xu8gPsF/TN7ir0faIxdGJQudrtpeBTe37R22wGjtBzbC/DwN98OWu0NNNgvKsVzmNBQuIFn8HyxQSeRzc/7HZW6jdyrwgx6ALKksn9PvOMf06F4zgn2UWp3p64D4F0MTT74nmu4AY/1/wCJzvHaOxLhyAAAAABJRU5ErkJggg==;" vertex="1" parent="1">
          <mxGeometry x="690" y="297.09" width="27.36" height="27.65" as="geometry" />
        </mxCell>
        <mxCell id="PoBiOrT_odg1vEccZ5-7-39" value="" style="shape=image;verticalLabelPosition=bottom;labelBackgroundColor=default;verticalAlign=top;aspect=fixed;imageAspect=0;image=data:image/png,iVBORw0KGgoAAAANSUhEUgAAAFkAAABdCAYAAADOmsq5AAAAAXNSR0IArs4c6QAAAARnQU1BAACxjwv8YQUAAAAJcEhZcwAADsMAAA7DAcdvqGQAACubSURBVHhe7Z0JuCVlfebfWs5yl+7bG02zN42AiIBGjSEhQjSuQTNEDBKjBAxKNK4ZMxPjGJ0smsTgY5JZMuPkMYokIghCcMEFMAiKqIAoCE0D3U1D0+vdzlpVZ37vV+f0vX37Em7r5cmTDv/L17Wcqm95//tXXxVRq9Xq6Sl6Uinub5+iJ5HmBbkXTsfhL7Kc9zIO2XGJpKJXKC8OfAWIIsZPCYPulwJAChDqse0BQVEUwNLmTIffCq6IlUYV7otmSrPZ3BetqEOpUkFEZV0laSG1K+VPvsl/MQ0WeTh3wFKEcPXBVS8JoJoMsOIcDHrgISVZVRn7Bh9QlCCAvTgtL4aiRqOxD8gJFRZJqm6RUXFL1UqmqBhSbM5SWQ9JNgcDkw9giuIuYx2AXEp0TxlgpupksfIeghdXNFp0ARmIDTxaH+c5jKiGOkzzgxxNqUgTuJSq0k0Ud2hk6Ea1201KC3ORKU3jAPSBTKWpsHx6nC5Ibm+lhobWANKh6uarAHoYyJvKubQA6JhrUhgzG9R5zUUlbqmbLaPOKSX5DcpaX1S9tR47DBdzuCuXstEDmaICDDCXvajFFhOKFEcAqXiVst7hSmvHqDZ6hLr1c9VFuzOsZ6wE0K3xM6Y02t2e6iV5VVXsbtTDeOep8qSj4fiH6m75grLOt1UdfghpHubygeQaXHN1xu7M0OCaA4ESiscKYGUEwBZTwPlCFUqKVieqHvwqfnu3JjGpyRBAd6eBeWAuwHW6NYUdnzGu3k96P1J36jJF7a+oUuzgbMI5g2zqS689aeFOHMCUTDFcY4MwAWbYj/FTQGiAMQyAHKlZ7agav0/VZaerrTEum8RkLC3rgOIqgpdg4C1/SQKYVNxrflbtietVyTcTjnTwlrAn0ICb/4q0muMHSilqDJdS4ODs5Ay2pRuwI8xDhITHmJAlbSKP6A8Uta5TvVvliiVcZ4zKgp12mIbqI/5VbLGyOzARl2mE8CztnMDx4YoqNBgA5iY3PqhgdocGZfDbgVAKpLFAgw00UJVk7XUQ6zPdfhlXOgXcU19VnNytXgdmOPzDtBiTOMeDdg00MbGyHWpM3KSUiKJa6VLfVpjXIFyxJBtEN2IgB+T9ueUAomQXZQI0pxl7m4LzCyGdyT7JUor5yFeoihXIe99Q1r0By9AoAe7jEbc5qBI4R10MevdhVZq3Yocr1MVxgqATWKeyd+UGmw07O1fQqyonEi8dQM1Nlp1w2BOKjykhSxycmykhY8LsuM+2cXYmCs7CUmOm9gth5J669hTu4d4CD+6SRzgix6Xh2p+wqM62Sr0kYeCRU3pIca9Xp2/sD/prJ8i/XBz63GP8WaVNnEzwUGBGGt8NIHd7Q5QKERk5oBOMglQmTrm9wGDHu0MFJXlbqkZJM3slcRxUAqn3vjtkrQgF4Fxwjs6U5hbyIgqOA4BDqupg3uESrqMXNSj4hmiS4w5lzh+M7sHk0hmZOSYqXSD16MDehf6g3rCNX5145fghg1mOv6S5YzcNfu//5iQtp9+Yj3CulCCDzGAt9tj1PBtn6KjI/lCwPY4hoWI2yBQDXBiQuYNylG3pM8BoA8JtoMs5k9KxhE5ae0JnOZ5VyhDKIFsC41JZqJMTCyr79qdQFybnjKXXI2sjH5BLaN/A+zYD6X7tS8hvgNkxR5ZPIOs7w7nYWufz7nIYHGB7IigpsD37Q4Fb/caR6ghpjOhs5BAvFAwJl8wtMYOJPbnCGGLSpTin/eDFDZ49OqYiH2XfXp0bZpVgymIknHDKIET0wb+UgDxRcX+4flZxh2LGEA3CNDM6ADpjGsLxHq3Zm+hRCGcjM59kLUL7zPjAfNftCwywg+oQQGfzVzQ/ca9BCN7XtWLwCQdDsYQ76wFod8MDmV3igo645ABNmzGhTxQ1uafvZMIAoSBBe1PPmsN1vbhNzX21Nji+9InKHtBmiv8qeQUBYywRdhS1zrGxCyV7prIu7kdzYzQsNAV5a8OJSnuDqhgAa+A8FLhFiOdLSidB0pLXgjRGnva06ibYpN4oZahvCnBMSRsBbbElm/Tv6E7BQHoRjGEbKrRE+jpAs3PJNclxGbt3uTdH3EP7SHyuUbURiIj7UzM3g7E9bDjXZAxnIcWTPL24GUyUFShPcexq0p1xZKyBI4vUoP0SojDgWTQ4N1PMtj2RR/BRPu+zZUGS+/v8479w33wUrsc5BRvmQyDo0bnEKmcv2yaEaYENwXgXqeimSowdCX1C3JgQFrrfSRdrzDlLTwkw9Qbdcn0+SJUmdVQXBqJ+KY1FIvPCERWoYVqZ4hyXUp+yYYAhjq3AVDQizaIFFfM08NXH3ViplSGhfrYV9yNvodNo1QIpQBP+NTkCGeyXW49qgTSwUybfzJCR7Dx3j4kRUfHc9rSC46wQW6aofQITnE1aor3l+iKdpOxCutlWpvtlKpQeLPf0agezUYBCBOOCGemOKatNKl6CtHQqqpEkVBK0gTq7SGEHgc7r1hTqecKCmbHkprSRNDGztI/paVfR0lpdnU5btayuWr6qHOoiUNRuNXod1A+BxMxdpdrEfwPCfe2RnYupjBdLDjnkSYK5SVHrthqt43X9dzEbwRk6dIMpVu1wte+xKllskDrPewT1slHwb6gVJidOaur0pgnuCx128ISeeSwg9Jbp9vtyAv2ufu4kpLe9iTyLMGl4jX7446V68KHldJ741n7gCclPN/yv1XuodJqYjoiTI6jaqc9LNBRvxPJhBlKbjCcmPxFx/x32TReHqnrYH3PueYy/PL8fIFuSHcsa5PLmuMD7R8TVKZJcH9OHPvyY3v/RzfxSgkYq5FvZ+t6w09/SFk4igB8YVhaMDAE8rACshO1xR+W6/B9P5JrVeuXZ31ZzuqHLPvksnfZc6u11dfcjVb3qzDu16dGaewbw/VDyXyUYj78IjtmOjl7EIRYf1lL8wnt/7xj9/ntW4Ax2qNfG9yyAngjkBZsLIkmKp/l8Y58Mnh0YdjYuqrr3AewxP1cMUrgOZmF3yQ3DcXBe/Hm+tcC8FJgDTmFmyNqwiR3v+z7sYlqt6eGHpB3jLW16eLd2TCTa2Uh05/c3cf2YinZNu3Y09eCjMAZnqhSA8Q0RpitgSHG05LZSH8NRPAMFYN1JztmThLCrgjPEVE1FS3T7D2BgMqSs+XgMKwVidgnjsqlkz4lZ0HqHhHQilIVKcplOhmrKHnuDbezhjaMMezi0Sq9/y259/qoNWr0i0X/+L78EZxqq1gnP2lxPit51wGgmMMJO0cKuIikZaXk6pQyAYvphvn39pg266or7Q7J+7ZePVmeqrtecf69arY4ufu8SvfnCk6TWLt3y42m94BVbuSfXOb9ymF546tMDuHIoaIABrddr0243PPitRSRLOLuiAtOxy5Wm92vaTob5sYt/oM2PjuvVZ6zV5ZcdrXzyEfpjQZlLBnYOIclOv2PGOx2tUO3gjxARPY/zfSYsGOR+gyF471NEKOekICJaKEHersuu2qwTDuvp+7f/Ag77Hm4cVT7VVVxz7IlUVQC1bWdZJ8PchtQvoSYYWKVUMDtaqr/75Fa94/fvB6RUX/7COnUn6jr7/HvUauaAPKrfuehkHOCEvvnDSZ0ByBk29aMfWKt3/tYS7DdB2hBOuIVEYc4Kh5dVZDglhW87z4TBjh4qjGeK3+rLtA3gX/yqe/WDu3fqrF8+VpdddqzaE5tVdxi1D+0/yOb7gmj24/EQwvl+ALYh8bnSiRGBVifUwnR0GwYzUbuBQo5x7xBh2xDxaYqJqHVJ7Ihzh2FmgdRNj0gTVNjYrmR6AsdvJ8hPOW3lbsghH8UqSKdtfd1W4VAw8JwYuWsbO8T1NUJnskmkNq6iMyO50lHuxpwkozByuKlkFTXUGMsQUYbDzmJVaMdVlY4QRjkyWiRaMMgByAGYg32C+pJbg2OoGFYd9U07lhkijcpypPs4vemdj+m8t2zW+W9/RBe8bYt+6z3f1fv+coceaR0uLeHeISQ6HVE3n1Kl0vCTde7uErd68DZVZWxd/vFj5vSV7sNtm2Rhcop0J1s/n6Q3yTKtv3+J3vWBhn7jTQ/p/Hdu03lvfVhvfOcWvfntj+qfrzsCZq+j7VyNnEgFUxbi/QxGOs13CLJItB8gW2IpAdQBzQKX3yxlyjvB/hkS82D3rt169x/epI9fOqXLPpfpn/5pQv/w2XFd+smm/uLinfrgX/2IGJV4tZWpndWUV5fqtNOP1q+/dIXeeM7BOu6w5Ui1839PqSLFXgPiurHxSexZPLSCduzgYmebeYqxGwtd/dw19+pv/vc2/ePluT59yYQuuWy3/v4z4/rkJ3brj//kVo2T1mcZcTFS7ildK03PmQ51RaTZC6eBoJnpbMGonCSz1vnpyULJ4AaAXUpyRTN86v/OKfIykoRSpbtZpl3jhEPYrRHs4NqDujpy1ShAJMpI5x/Y1EI1S1WtEF7USE+PPGyHLvnE0/SxjxyjVcuw+aFaz+nSCpLtRTe2E+VdlnI0xqIfYXYwabHnPkiGdk12lSSpajjTZ6zt6JhDYi0dwllTx+4J0vEqJXdPqmYR9VCnp235PYGJC6aAi/tS1lFi1N9a09hbXCJ8s00rG7INdXKSEFH09BvnrtGNNx+nr311nVatRlI4H5OUeAbMNj72nEgnU214qaI6gMU7kcwmMJYzvaYyBt+XSseM/pDLR5grA2/7rGJaJx4f6fpvnqybb3q63vv2Q8saAp8wERxEwe4/ebT4IAfCdPSlOpDnBQBzaCjVqoNyrVqFw+tLijNGP8bpwZxWMaWd+ZF61/se0qtec6c+cy0gDS8nprYV7sM7q9q9ifpsNyzFjgOdbaIVBQlHQja4Eme38qCOhmqO9SHXQ3HSYyf7ZNKTADKSGwrkrMohnsM1gLr1uw2ywja2uKHxKQMCM4hjQ4qL9NdX1PWJT27QX/+fbbrma0297V13kDbvCAwJlglkvJkdRs6QkeI6IpswLLebUG+SaMvWjj70wYb+4sPE3dfPmvixiYHJg3z0yaL9ANkdYnCWkL4sBUcXvDBmwbbSe4Rd7rQ9taLRAEtOXOpBf+f72/THf7pZH/noek16/ojrqjgaTzkqngrmtT3uGTUkGHDCKUoS2jWIVm87QMi3WAPCH+RuxSQZOL4e0YHnTfy0x5nlw9sn9Ud/dq/e/+H1uu6GLeF+p8KeQy/oV06SYMvpqd7cc+CFH0HZ5C0O7QfIJZhlYViWUg/Si8A8eFJhD9dXFXhtHzmbWzo6op993rO0BFMREQk4yUurbS0h1Docp/afXn6astZKqnAqK5111pF65jFtLU0n9dbzfl7POnENQm5w3ab/AxgzxYdEBGGfswbVzPSMsx+IYtR14nFH6fCxUY3BzRFS5zpOcSn7YyjaC557lGpZNfQpTrz01cTdBtlzLsXCJocWQgsHOTwBsexBYWJ6/tyeX5QhGRHZW4/UebTS0uc+Heu2fzlcd33neN1+y3G681sn6I5bT9KNX3+2XnuOJ93H1at5cj7WusOndd3nT9D3bj9ev/enVdLex5S53TBnXS4miQPIJSx7CGnvOeziWj98zTqTetWvjOnGr6zRd775NH3/28fpe986Luzf9q1jdfHFS4lmHkBWiDbaOFk7Tqp0IDojTItDC67JY3LcZwpeeV67aEKGw7wwnh7psXgu6zR03LIRrRut6rjlw3raWFVHLWnpqBUtRc3HUPFhQHFcOk3yMaFDRtbqW9eO6F9uaqvj+QfaKm2yaTa4M/ueFvBkv8/EloW8jeRO6ahVNR1z8LAOI+s8+qC61q0Z0eEc1ypT8I2601jd+iypdVYLQ70sYLFo4eyy5Ia5YCh4b4OyLzlUszh3/awQJxQz8BjHFyywJ4j8NCUi+cC8eOltOrQCaSIh0HLVSIvjeqErvvIdvf099+mCN31Pd96NUSYByYOOuLvB0LqpvciPlCyEIXZICRkxyEmvSxvOHhuqVt0eWkManxKyVTyv0UwwQ2SITuOtHYGZtOE1F/82IKNOLqWssEGVrVwh/uG8n+tDCVLgKcV6bVlYfZ6Hpf1eFOOnz3X2vWCkhl8D0JhzHaysn/+QKdrOZ9jZLSQRu6hzZ7utSU85OkHw021q9oRPuZoU+0lbMcy2HQ5TjWiPkwqwpdAuv1VIUFINUXVVaa+u1M8Gua9OHWltNPRpWbKUftufBDdNe4wAB7pYtGCQ7XCChQhAQziaArsbhQdudCwdCYMvGOFodVqd6YaS0QklQ7uUD29VPrSD8UySYCFZ9QYZ4W7KpLoxJcW81JvqVCrq9laoaI2o5qcjhLwVwRQcmpcXOHHpUX8wVX6khYLYAvu3HJB69d1hAqg3RBvDbdpr0B7JTI1C/eVxQ1lEm9Vt6ta2q8Nxp7pJOWYt7XVol/HkjNGT24tEC57qLE0FF4UQzuaC6LbCMepXwywUlWGd97YpffZLP5RaFR3/NEKxdtN3qBlm65AMmxlrgiMTb8MaC7fFPtfEmCSHgLumY23dNYQUTum6Lxyr3lShsy7YAOOG9NH3pXrzW09U3tyl6+9o66W/ujFUu2as0OgooR8g7YHHgM3xHZbWoHlmSjhTrmJ6dEumvFvVy164RldduVbatuVxTMae2meIGL+H+Ylx9NNaptohH8Z4nUobtvX7M3cxHzG6yNyh6zHAjQ49pnYL3w4j7lw/rR9ujnXXpq7Wb5TWP5RR2A+l0P0bY92/ie3mFqXJfkf3bpHu2ZjosR2gBuAVmGjVtkVyK8HxspPlXWVZqmVDq9CaVNXeqLZtr+m+Bzu6b08bbnd2m4OS0VamDRsjbdgUUwpKrhYa042mNbYixoJNqVnFFywS/VSSrCoBVW+KUAjbRje/++ASXfKpDZwjYahgJ7kkyrgeNSyleEaS/VBqsF+WXB0urXdXI8GFmtqhE562Uue9fo1uu2WLfu3Ch9RCki9+f6oLL3q6iglMTrJCH/90W/dtvFdJx4sF+1I2W3r7EdFsCmeCBmFsiIudRmX04aCl0qtf8TN65jMfZThTYILP2If2re+JJHk/QLY3KR1OIMDuAqynIJJOvfTiy1bhTEjlbBqIj8NKoibxBra2BLgPsp1LYJbJjobrDHwFZkwxUkcmtUhFYzvOsaIbbiz06gs3qdWo6iMfSPWm3z6ONifVjnaSVB6rdHgb1ob6woNRaC+M54CCcJSTVo6DnETxe/Az9KFDXxq03fUxDAgTTXNp/0EejPQJKbyQ4vDJI+Dm8KoVnUuIEELYVKsQGu2SJgBqO5ZvK9duxTNNrFK0c1LRjglFpLfldrei3bs43+CYCGUHVe4kvX1sSN1GT91OW92pafyPmQ34VTKzogY+XXXSaUIzGJi1VOsuV5V64i0MYyeX7kYjXHbNlGg3kjS7TOTqThN/T+9UNr1d2cRuFbtJNSdayqaIabzCJaUtHOZi0YJB7oXFgABstUei7eHrxMB+Xpd4XS+pdJt4N3cCshIFHNmqYmhC0zi/8WyZJrLlmszGOB5To7NcU52lHI+UpesyplZzFJCxjWG7hLJUjfZBGicjy71ELOmomY9x70pNd1dpqrsSnq7QeHeFJtrU2V6xgLIMv0HdLtOjyidHlE0Og7HbWEaIbAeIIKCdi0ULNxdBBwHQQNs+W5o9pwD4UYo0VydwSIfq4v+3Sw88eDd280x9++bbdfVl9wEIt9KGQzC4QS2ZFwL1FW9gQjhvVQ5mxFpTEncRK1dwVjikbq7D1xRas9LhXFg8EMhdCgrm7ROQW7JHcJThac6ypJrEVKxe3tMfve/ndfJJXZKjDsOc6ccMlb3eixbLJts5RMH5GRTu9+pLOF8Q9Oc2G0tT/e1HJvXuD2/AhEQ66eTV2vjgRk3trNNgy0OiBhd30s/n+sjsUSaSiADbYBAlYjF1e0K+XKzOsVcKeXo0IFv2xbA5IJtn+POQWyaj457QFolHmDfEAdbIBN/wmpr+59+eLrW3hBWn+9I8rSweyABDZaXzo6PJFP6BrK5LGFfNlY4t0TvPb+t/fO5HwFXTyrGOznvDy3T15depXXhhTAUPngaG5DjEetZfQRTAMtBOK+gsjPRjLZujsNqUjnXo69T4tLoMenh4REuW2kZbq+zArFUMxEKwAJTdmsN7dCkkMOUqT7JU2jt4KNXfXHySTnv+Vuz1NjLR1eVNe9GTCLJi0i87ohD6QAzM7xbHnofwosE01vVfOFJn/u7teP62zvvNQ/WhDz0NZ/JoyKT23OtwLeaeEAkMpLikxG9+or/twrJF+ET4VyFMvPnWVOe+5VY16cKf/v4h+u0L1uIct6AxSwhS2kg2PgFmewXobDL/yG32ImtjEk0oLOElNPJTF0MfwfQKyciyUYSga+aSxGeW9gXQooHsMCdIjiXZhBREqG2RKU0ypBrQktW664GteO6uTnr6Iaokmxm452hJjYME9AsS5OrmjB98qdMSSprtaMJLXSx2X7+prtdceDsgZ/qTP1iid1zwHCU4J2cpeYLExWPl6tJgzmYo1L+P4HF2MAcetMiEl2BYFUK2PEMgMHdxvBImOxxdAC0ayKHLg06xpYNehpoU9I7DNslAbTlAjz2fehmwQyE/oKx6kQuxr5+9hTlo3+u1x96fg0BGu1Uk2Mtu6V9naouq0RZd//UCkL8HyLn+7A/H9I43P1/t8fVKhmtKlx1ClUfDIaKB+SRvLsg2Q6knj+iHxXxgdj0/2vCS328q30Uikh+pXt1x4QJo8UCGgqS42B7SqR6xJKqas5+OrNAXv7RT//2vdoZ1Fx6M1diTlEkwEzRoU2Hi+p7d+hzy2ok8r5CW79BwLdWznz2k9//BGt11e0vnXHiPGqTsf/beJXrX7zxLefsRbSfUe/8HHtKtdxLXYrpShjaX5sGYf9Ak230D7S2nMsLDlSM1vec9Vb3455cBOMzw6xkLocUDme7aLhuo0DmcT45DYxvXl6hdqerdFz2mv7vqAc554QmqjJQkfoaXeaj90vdO5sM+5D4kQ/zWxE0uw9Ts1he+eBCADuvVbyBSYeAfel+q97z5ZGk60233JTrjpd9Ve2gUIfYDwUG0MYvmtuP2g7UoAcabc+B+EV0Q7//qmT194n+dQcK6HWlmvAuhRQPZXpzelXx3oXP2zoAYXgisr9QbL9qiT121UUtH63rBLx5Bvz0N6Zmxcn4g3OaBQWl4UoykU0eRNPidmhOkMatr8+Zx3faj+xl0F5BPIBur6Kw3/ljtZk9/895RXfCm4+H3uG5YP6Vfetm2UO2zj6/oyLVH0JQja4PNwO0I55lJ8/kwQ8uNfqZHnKGbb35Y441pnX3GOn32sqNUTN6LXxjr3zGb5nINerJBzlH7sKKntkIXvOURXfn59Xr6UaO6/vpzVEs34fUxAhXMil8GD96OhnGeXmuBnNMWf57joM5OUPdUf3/JBv3eH27g/qquvmatovFqH2QFkN/45hMVNSd0431e1fkoTqqtP/8vx+mdFx2NK+iDbNPWI+2woM6iMp4u3xAI/eeC6U6sX3zlPbrr7of06hceq8svW6d8YgP1zJf17T/Ic7rw+BSe6/X3Qzuhk6GfBO3lKkyfbjG4dotwv7eTkOhBIuaHlRJupdn9SrsPlPvdh/jdkcdGVdhWs22hjDYe02i2ld8nqBMLS1jlSDbU7IZcwj4bnJedI1E6TCZZSXbBngdU7dFGj7aKDZQHlGQb9yppvonzJBrFZrDZokr2GG3vgjmT5ViccXps9HyxaMEgBwpew8P0X7n1GfuwAcjhla0KiYEXpPgMMXIvIWtLScNduLjnkI87uzAkY0CeCPJKn6DlqLffk86QALwPUmqJN5UtmvIQd7cBissJ+dwtJ9nGB5kKJZghjsNrbbNKTkc73FDWagbVwjqPlMq8SjSYGPpBr8IVi0H7B/J85E7xn6UggBoNM3Di5wwQ/HOwvSQZAX333hEJ1+G5o3iCMkVY2golS7ark7D1gm3AqCS+3mzk+kCu31Lr4wxz4oTGmSG4wBzrGiFuYLgNm7eguHfB7EWEns5YlTRhYgtM0RYwDSv2fE3eotl/A5BDQMEAyxdzyn16TQ3lqPwaWXiXuO3kY1Sdwt6+DWBV/ejRdbrm5mN1xQ0/q6tvfrY+/9Wf0zVff66+ettzNVGcBObWe8CPlqG6qar5brAcUgPRDA9Ng321A3N3/dSZ/QRzAogFVtDXBPnFLnIh5zokmC1tnT5Y196yTld/gzb/5WRddcOzdM2Np+hL3zhJP3rkFHXNxLijNozNaaNL5NQash3168aDL9X89PTTS/Ic8kswRccLUACiUtNEK9fZZ9+qc153rV5/wed0zm98Uef+9mf1hvM+r3N+7Wr99cU/VjyySm2cVPnmv1f1mOwwPGAz84nJq4n8hlbs13dJTKLKUl12+d209yW99rwr9JvnXavXnn8V++7D1XrL73wNjTiSDtdoj76Gts1IV4ZkP87inZ+EFh3kXtHERsYMwJ3ukUBEemBroawSq42N7foFy0pbTaStjYrfdscmtGCSJJFMr/BKHqu97SMAozWeklwQhYkis6eibtehY12bHm2pGQ+R/iPnaEqRus1cLbRg82M46GhCWRdNyN2uTQ+SHZhqkM3gxaFFBzmsJQtqSHhmfe4S+9YBnFDu11/1TN34lQt07efO1fJVK9TxOozeSuxjS0PDXjHhARpY7Ka32KXZH6H6Vwmnhq2iXWohpe954WOPEAxGP33tKt3w5XfopuvP1+++6TluAmfr9L2jxMvJBqYvFDOKNhfa7gJo0UF2iO1np4W9PpKaOnLo7ibizLRu9W4995Rb9HOn3KZafZJxTKk2jB/PdxJPTzMwq6gHapChPXb4ickPRDt5E/zI3KpoQ8aWWio43ZW1CZ36vM167knf0HGH38PVGWYNSY13EqkQvvlDKiHlt9YMQO6bjkWg/QDZzmfQuDvi+Vskxi+So2Zx6oVUdLJD8lFgk5EST9Z3hzzZMqJmWuiB8bruvOMXdOsdp4AnsTVVtqe4t30C96yiGpuIFiGwZbpCHDtEjXBtQH3pCm9hYYMLRwpmCgBFvSEG4yfWmCs7rdoUjm0qPJPdST3fuu1offt7p2rjY0eWYV9OytJaR9y8nGZXogAGHafquqnLfWZnnrL/tHCQ99gskwf2OI7BP2EbcxKUNK2jtu0QPRS9MV1+5SN68Us+rl979TXaup360iGNt7bjpLjPcWwA0ZHCIBOkjflCKX+CwaYgdN9OaxntjtJehTqw/4R4XiLWsmSDyz0bxvWyMy/WS192qT72txuU1EfUCXHfMmXcl2N/w/svFF9v+14mQYtD+wEyALsjUPgiy54kYW8K9tS/G7ks0lg91glr/W2KcZyiB06K0cnBNFM9berU00cYpNXV37oo6zczyzEPzMcc8hun4eMjAxX3ddhjYlzHyj3qdpy7du3BGibKiUl0ppuFWjjEHCnutdpad4yf1jxMyk+4Z5XaYx7cnhn7bwByP4/qHxnw+W2WYwPHyz2YUnRjjQ2l+sKlr9MVnzpbl196rq781Bt05T/8lq699HxdcclZ+q/vfg6hKqpKfX6pxu+OlErpjJF6nOXMJUt38P7+jT5FDS7HNHT91AMHmmFzCSPPeeUp+ud/Opt2XqPPf+Z1uvLSX9fVl7w29OFjf/lCUv2ttNKCN67H47Gmwl07wvk06CekhUtyf7KjJINsHd+XyoSVdMAvtRPG+fufq5d9Va944Sa9+PQf6OUv/IFeecZd+uXTbteLTtuskWi94uaYiib2NEQHXtMBBdPhMpDuWeSkI/cHW90Hi7xNh9/E5k6aTzIkukm7wzt0+qk/0MtedDftbdIraO9XfukuvfRFN+vEdQ8rbVBPNspo7CLL9soXimDv42jqT0ILBtnvgJSrbfpAM8AuahaWHpsBhESGwwt5KkhxPcH5DPkB0pC6Y9xTdDTst1QJ6ZxeeylrpdVVpYuD4VRcQZKiUaSZbddv93eVVrtK2kvVRv2j8KjLz95wUm33gbQd52qmOgJXfjCh4nJiYWxsHcCLI+CTGUeaT30VS7mX58L8tDWG08OhVr1gpq5agvRjfmISothf/4pxus5Yw4jmlv2nhU91BnC5KEhYaZ+zOEPVOqoYtOGVOu+tk/rU1+5SvRjWWS/H2/d2BinrVg0Q0lLYYnY4j8wVfghqW0q9wZE55JtGhVtaf3+kW36IfFH/l7+4Tq12j0xto9rTw/rLP6roovOPVTY9pVvuLvSiV94dFtSccvwyPeMEAAqLkz0raLuOgSMGD7E2/XU0FKAi6fFXZIIpIsTMs5quv/ER7R6v6syXrNaVnzlR2n4fFswRxlwKerY3Ldp88jwg95A6f1omDQuFU134tu36+HUPEYUtxdHhzAC1hyQXZHoenCkMkuK3jYJulwdQgp/MVeU4zMiRkte6gPyVQzU5Gel1b3hU7UZVf/7BXG+56AT6P61v3tHSi16xnogLoBqWalP57wy58sG5cr9suQTLrjJENCnJC9r4ypfXdMWnT1W2fbNSv6K2D+0/yG7vJ6as2yYBaCvzQj2q/cXTKqrjxSu5J3jsAg2dH+EYaMe+jj2clpDqYnqyGG3gIseyWYgslqjDfQXxcoa6Pus5S3XoyjV6/jOeoWMPybT2oGmd9ZIzcKgNtTvjOvKgEb3g5BNVbcAc7nYvyp7QDlJaPiethWGGc+xnFFt9xw4uft7g73AlWUcHDTex34eqk5EchYmixaGfTpLhYDduY++wg/mUGrVDtXv7bsxeW9UKoRnSHEK67hqkfhJ765iZe4kg/FmzYCZcr0M1VDjNST7icYBuKI3GqGOTDluxlKbaeriJ+nfHdMQwVjiagokwLprQttYRmsofwHZjsuwQnZDQakGdbju8AwjTwuyhpzIdxRDDB00iEvG13IiTbqnaOkwHH7QJCaZP+Ap3dV/af0mOms2s5/UTnjWLp69QffyD/GAQy6Wl4dEQF0denDKH8gqq52WmhEBu2rbRMallI5TQCElJ7jkE99gDc31elenruI/Tub9t5tg6t/T7Hk56ssi/h/roaOJlYVwDY8qn4CYzyPcaMuuKhYDibSimuaBwHARmNnGtTV74Wiz1ed9C4GUMC6CSUe6ev0G0WtVD3g/Ip+Os3bdumAn2ULiSf92f0KeZzgcUPA04H4Vry014PMWOnVoonPWjnDBwk390veXV4T9uKo8CMAPL5a2PDSO/Bknv3xO0yHuu30bAW7fZv2TBFO6aKaH9fhvhnGm/KoT6ggWFtXWh7+UxNQKy00jXSfH6sxlAXDw4S9O+5Gd7JgNsCg8s9gBpGgDTry9IkBt2G5z1bRS7Iq/4dOxRpsl0MoCL5IbifX7tt1O20WfCHhqA85OQO9Hv1yDJspAtkNzvMlHrC6Zj0gEO1Eut/c6G/ruj7AyM0WwpmocMsn81WMbS8bubC8VV8kMppWVjpalgy0B6/twKjs8Ae7I9lPCHyfBKS2LwMn1nazMRACj75fNe7RkKx9aW+Xs4H/U7O7uEu92v/m/h2CDtDxnH8p7wECBYghJotzJLQkw2D35S2xf5wJ3H4ap/9iaAVdbh5KAE2vsu7rTJIPe5638BaCZl5u7ADCgM3Pu+vt/xcJ+pf82eNgbtlP/+dOS+zK5n0LeF0lyQfeyCECRWU5yLvyxom+Fv24cv4MWEOpzv2SHuaXzv4pWP/vPXAA1SeD0X5pQWeQBDiVk4D/MGX9WekXITGhEAB+CgPRSbqCC5Bt3bwbWm0hrPtGNyI/3r97rW+wspg/tmHy+MOskuIohDA8YVzwKSOTpMzXtEKIw59qcI/JTWD2mTOltHE5WEYxwLapqgrlk22a/uKZqPAku8gMc7tZXkUUQmZn2QZotCABmucZxyQauyWt3E/5sdv7zIaQvWfHHzU7SHEi0lPJ9UE8+f19YhvctBFF/SNx+xX9h2Tu8vcxc6kotforbjVkyB7WOPdCxJHeQ/RY9HUb5EOYlIXjmcaPf56nQNcgamSK6ds7MgP1uLsYNZdqgq6ZmYi9XKyL5swO3BQ/LwFD0+YWs73Qpm4mdUG/oF2w5OBm8EhpiLBGn1WhGnhg6VipGjNJy8g7R2BA49SuThb2w6A0L87Ri53m/f+7tpZZg2p1DVgVLKBxV7F/9/CP1Vl/CVRTBz+h5X16tXfybC+Xq1wSrzEmMHAtgGf2E9arX9wcq9qZbtUqf5DyqmvwKYO2CMU8MqiYqB9hVwh7bC95EPYBqEmIPw1BQw8MNWLHGIZoismrWjVV/2IkXpuepEnstGGCN+C6En4Warte//j68g/BiqPKKsebU6E1fBsPVSc7nSJFEavk3ewSH2VwnNJaN/gJBnCE2z8wivmysYtyce/b2NtIpZHfm/qi5ZrkZjBULYVJXf/YXdWSDv+//j8+eSEk1rhAgjyh5S1rhVSeez2Ow2xZ9X8JcDffs8y/33Smz+fVPStNSW4xlsu2MFTu5otPj5qlRfoOrwM9T1kxgiML8R4GeMzhs8zTUL5H3/l8oZCUrc64a39X2Rs7OUgDvrdpSH/4+GH1jaaLiSOfTvFOR9XnQ39c2hAR6AXHSIetMhJHiUnGKIAAHbG6ZYEUi/uuGY14/Q/C7HHpDb02Xts7Iq5yvcydEgoyJPwz7N2KbylpAd7kP/PkEejGk2+YOBptkjCl9jdObm3MK22cEAYJYveBrSUvpDas2R6y1BDuntoBBG+znZHJrP1JZTev+xyDOWJRlgBNDgBoEvAQ0lCOSsMG7G8Q1A9ulSTWZT+aj/KRqAXH5xt6SBKRmAavJM4uB4lk0eXOAyn4T2L9uL5hHvA5xmbPdAcg3oQCgHgro36IDsz0bNFvVyEn9fmk+657PJ/0Eo2OG+zQ222fgMAPZ+H0/19P8BAi0BgcyZolMAAAAASUVORK5CYII=;" vertex="1" parent="1">
          <mxGeometry x="690" y="350.75" width="27.28" height="28.5" as="geometry" />
        </mxCell>
        <mxCell id="PoBiOrT_odg1vEccZ5-7-40" value="" style="shape=image;verticalLabelPosition=bottom;labelBackgroundColor=default;verticalAlign=top;aspect=fixed;imageAspect=0;image=data:image/png,iVBORw0KGgoAAAANSUhEUgAAAFUAAABYCAYAAACEa7uEAAAAAXNSR0IArs4c6QAAAARnQU1BAACxjwv8YQUAAAAJcEhZcwAADsMAAA7DAcdvqGQAACWiSURBVHhe7X0JnFxVne53t9q6O91ZyU7YFxFk4CkCwvAgGQVxQGTRp44LyzA8UVxHRgEHYdhkAPURZZWdhKeCIrigMCj+HPRFEEgEZEnQhBBI0l1dy627zPf9b1Wn0l0hBYE3JvoPp+96tu/813POLZxqtZYCKRw3YmogjXsBJLwT86iUwEGBx/UpTZltFDmO0zzbEihpHtdRIlzSVh955LnnNi/byKlUq6njxAao56ZIGj1810GSNggSC1bZblEoWjnCzeG/OBXgo2ks0JsFdeAFdVu3HetT1q8kcZsw8J9DrJIEvhvwPOIrPlIxpvCp1smpaQgXETyUEEYxEr/G8yIC/vWcp5A2fouYBSQJM4urmTHoAGqaeM2zzY3GMkOYBnAJHGHMgE0TVMh8rt+LXG4GfH8b3puEWpQnEw4zB1nWo3wTJ3JqnTmIMDO5bg6hn8JPawjqg0DtN6jjaygN38thIthtEuGmHQBMxjbuz59M9MZQQgCNK1PJt0eAXdR76ojSHirFPRD481As7ItGcWfE0TQ0kir8nEtJz5FTq8NUjxwL6QciXWsU0O+XMTT4CTLw9chxJPwwtIrE8iybR4o/snvrUYfG/bmTiWundhOPjIk88qlApdSS2ZBLqPqABpPrOQj7T0Mp+RKiPDFUQZRWJ6yvSePEpw5x4XgNFMPlGKyeArfySxTjkAVFiPxAtRB41aJjipzqG0MdtPbmQB2MrnEImajFKGaYpd5in1cEzp4lGMyNQ754EvI9J6Du9VJV9hDU8MW0keQpuS71xBq4L34RlepVGJB0V1miW2KqWMFWiUgHR4WPIorMFkMRPR6XTETgEqrHhKD6AljW35W4kltj6ljeGvRmIDfudKqE4+EEPsW/tiqtOf3wqRPy4e1IVn8Ynl6WfmQOMjH8uDlcf0GUdOgynaOxVM+jUaohDN6Inv5vYjh9kwxcHnk3Rsl5HPWXbjXkPZc6hA6YdOeWxHyvhITp6NSR8hENOzGrP4K4/D2qS3oMbkpnXxar/gKfPyavICtBoPLQcXT+Ekj97iZJQ/BQIPM51SXI54YyKdfTRuNFBN4qUyN6WTpE1FKjf2nksP+j0/poNhNdBNOs9A7qtceJ4+9BwadrlK/RqL2IyKNvyswJrbzSXza1hH4jiVwYEtzYozHznoLnPy/VWUUS+XSRSmbdUholl8mX06vrzTVI2lRqw+1lE8PUQlSER8uWeEU6Bw0aqqbnKz/MmJOXW9bEyOtMBDFLVAUpvfekh8qgDUBpib8C+gpJcGlCRZTS/0yKBNUU8CgSsH8FtzsaA59rbukIGY5/BfOVkUTeJl1ITafejT0aJca0qaaspFNd6QfND/IFjoKjsKxbao0asyhbzLqa0wVM9idLNnijUuuZkh1GHmyc+FqiulSHkvxEzXroXM+YYuo8Jbs3Oun+6NQtJSFCYijKEbrU0TTqa0mjMLD2ge6DXAjpG3MlVOWoF410X0nvZJMWnd/rQBwAV6iOlMFEv5HROjFjGWzIiEazabb21GUdr4BY6mtI1uh1p+sKbz1ogWs3R1EbmCMIdEvZ1KUBqcQwO3U1vZxNMTtk1WyA9Wo7oEqtwRudXj2t6/drQBKzkZBBwClJlSgxzMiedkSUYDDosMTAg+8npoZGStsIqUy9m7Ac5qdDnnhUZz7vsU0GuOY5Y4GuutZPphNHp02gTcs9igwuNbJFuqEaNIEggKTILdnT9YnPtSaWrZfpqMxWYhfE9wXqSPk8V7ztakB5JHJpTFWQ5Azg0em1JlcTz1LwjkShvQ/WJ/5R6pLEaY7rIGY/bM4wCphKtBsuGiw+8cgpSYFFBrQj7AxFPLMnUgnscBLYs5R5U1tk63LMTVfniV+OAhHAi1x4IUW+Ru5sFOD6fJ6LLJS0iCdlauiohU4GPbZqrLrYJkmUr+suie03377t2GWruyOvwUJlAWl9U3FKPkWjwHNiFqjDlR7EQz47qkVGQ54dSIk9xZ1WE06dSceMw9hlm9jZaCJ3pj7zBiE9jgYavJYaEUBOvsp6aJE5UH5aQlpjY9gWq16rnwR7XcBD8PUs0iC9enKGwzWpG/XAr10Df82JupU9MQa1P7zVqvTlKaHOEsNb25r/YnKgR7cj0AK5n0darCMNp2Pl8z4GB8djuNaLSj2GRwDI5G0kDtKh2YaXJb7DvITX3g9yPoolYGDSckyavAI5DlI6xEY1fBsETxJgs0sR3Bw52vLxuUZfxlLP3aGs6I0RRS3MBcjFDYSNGXBmXvHagho13/M9H3Gs1dcEgbsVInctGWAqHnp0Iu6+5xn856JVWPYMsHKFg1qdQHuCo6Xfmkn6rku9qhjGaiZgGlSXo9OTS7HzzAp23c3B/vvMwb7792LKjOXsymqE5QhFFputsueYR3pYN5iZ6sccendQDzdOrzeoIUWdTMmxZjfp+buuABuP7965Atden+B3S4qYsnWEPbcHdt9tW0yf2Yv+CUCxl+KrDhqnqC51zjVON+7bKFGZyG2yQQDKw0N4cVWI3z8+jMVLVuF3DwVwijH2PziPUz4UYI8d+5BWlpoacpwiq6O6aa4Op+JY6nbHpTrphl41qOyjkRkOJYd6q2GRmKMVRlr3yLYMlfi0Rt2aQ1L08eunXZxx4Wws+e3v8eZdt8UHjpuEff72MUyeSC4QVtS/LCiLfqQDm6CMkEIy6mYtYKY0Pr6tm7EuawNvMquBQFA9cpwZOhXsDnN8qEd7+Qr14zOLZ+GHd4zHTbc+jmXlHpz6v4s4/iMrMc7je2UOXK5EEKuIyBRxDSiELF9rJN3QpoGqHuhZltKAjadJTzXIcpnoEzpOAc4QxX4gxHW3z8ZZZ7yEPWZNxcdO93HIO5YDwxWA+rORLajb0o0Vzb/mX9r5OhLjyvclL2eeUUQ4Wae0YJTTxHpAaPenX7ovjd00BH6PcWvYoLpJnuZ4/JBgP2s63ac+HyzXcOO1e+Dir63ElNkVfOuqydhx6jPkWpbohiyjyAFLkQtZT7cewKsX/6zr7SQ9qG0+qfVa6ESI0l4aHBdX3DQeZ57/Aj7yoQn49EkOjUUV1fIq+DQUgaul33JWiMiQZBkcmGZtI6SiHXKia4YjUwR1ukWOtxcCfIQctiuc0gAt/HjG9eJUuWEcXOpIT7tuqquo6J9Bo/r/MFz/Poq5JSh6s3HPohRfOHM1Cwtw6Vd3wZu3/hXfa9AVLDGOr/Ad6tX49RZ/W+PXOVPTeIjZUlebsugiUSE6Cf2+KSV85aJenPPlNTj7vMk45R9cVrSMvqCykbsirZ0XKKjUX23LNaayO+pt1hVS5zXoMeQSNn47JH3/E27fPOTcQ1jKACpJlXWnNDzZwGfGjlzPQxpQ10YV9BbKNJw/w+oX7kBP7QfwSxXUkz1x+FGL8PtlLn62cDfsPOdhunvM6tH1Y4M78FFn6gBql1mt19lpE2jtJ5AZaWiPla7p2N/7w0m49LIyPvmFAZzy3mHEw8uQqxSoo+SypujxivCpe9Vgh+9DsztMNpulcrPxGklUo0jzFMMCg4f8LHj9JyAonoU4OhLVqEDJWEuOpbvGYhJyp/nGDE9VpkPFkKMydjmIlfpMhNWjMXnCVxCM+yD8wTnoCxfhmkv2wQ7TPXzi83/AmsFJ8PwSs5sfwga8euoSVJFAlS8nl4OJlwG5VjrIY8efXl7Auz7qYt6hFK2Pk0PK5KBagYY0JDDkaBmSmE6/nGtxk8SUbVfyeJ1xq+qRAWKzKO6SD0KLob7JcKacjTD4FCr+ABpelUWE8DgauTAHxg7sCPUg/VFXEZOcfadGaaqbcdNGEdsnFk9B0nshooGTEa4ewDZb/QZXXjEVT/yhDxdc1OCzmtniqmzfJlCXoIoX108yUGmYoIfWxPUm4PIripiWG8Tpn9sG4eBy3lNUQ50rAJlFGjHTmsrfgRPsllBuPtc1s9bS2cj7X6RkHE4tpJ0zCYdWg2AjQBB41CDIqrUndc08ivZEaSXIudwHEWx9BAbpLew4tYbPnJbg+luG8ciS8Sy3j7p37CbnV0JdgjqWYg6pU6ARSWp47lkHd/wIOPOzRcycsNRC55R61stJ1/JcrpAZEEKrEPRliRmMPDpnzFZ4B9zicdSdE2zXjLhaoJq7T0AFamKgNiXIEvW83qIYtCeFv0mSpzEqodb7Warr3YG1L+C4Q33s9KYdcNGF1PuYBVRU86un7kAdM+JKBDaUe5THdbeuRam3jvd9pKx5Cz7g44AOdD7zKLURIQOBF4peOnGqnhvpmQbBR+jPQW7coQRtPMJoLTGkqrEJEZXJV9QGpsztYptaie1jlUzZpEwrifKFqund0NsFfRM+imp9BvoLa/CPJzbwk3vW4v5HnrP3NoW6A7UDKRSVU7CmOgvXfAs46vAdaZhonGSNySwRXZSIEYuUlMyGUDCGamE3hpoP7MA/dKVy/jvgF7bjVR09QcH8VEUCsvZ8wYAzpWKDrJFsJgNXD9nA9RKDg7oPP+yl6qqQ69+OYOAwhtcV/N2bl6NvcoIf3U9XJdejRrxq2jCo6pz0FpOm4jI9paNGnad0kNW3RU8UsHY4j4P/dhE86liPNx0aEJ/5fJnvJlcbmsTEi2UFVG52aCXNE4R0KZJ0HFuVoOozHAqOISftaMaQfgZVDtUHVUAiH1n+K9sVsD2aIBG4jl/ngDIoUEXU55q90nmUMtpjmdoNHUcBKiWKd5rnAE1B2Ls/gtBB3uvFu9+2B+69P4fGhAE1uMndLEcdVoQ1oq/VaIGgNJa65NQOmdlon4b8sceeZvweYfvt+5sPXh3R3aXvKbGt0KfkdfAG6uStmuMqnSjjpEES35P77VqJqoVtcen8Rwx5Yw6kw3P50Xru0XXzfQGhXmSBgR4SXtbjIJefSvAH6OqV8bb9JmD5HwcZeW2fIdNiiBaGIt3LTprHsdQlqKKmSFmhqoFZaSSWP1/HpK1SDPRpY7Duj056f1SSQhxNclb5SK6Rpgtjb3sCTWtMoIlNE0CpEjXZemzZRNm+L7l7eTr71OXkYr2ryXdJQItUjqtlFgM1ZD5KU24ODdYbCHEFO2y3kjbBwXNPMOBQcVkulseMKmYEUJHq7wxf57ujSSBYUqFZVRLFGjnjRUaC02f2caQ1wdx6ry2tB3ArdaCY3CWpNQB9drJEDpKqYJ1t9a4DVEn3BbqmGZm5eV/KIk/fWByqlMsxSlK0Yk994uWjkCewjBrCeBzhnMMxdTFuYAUm9nl4dvHTTVBZJ/+zgTRrmNWXEa9NPYyl7kBVyaNIkhjFAYaGXEyePCGbcdoUylEghaG6QEvnuDmCpY7I8GSdE0m9ZWtL0nnqtrQpvZCIDr6v7qRYvPh3+MFd38NVV12F+fPn46abbsIvfvELPPHkk4x4UwYt9EPTOnNS1/K8lBYQUE14JV4T7LWNYUOmBZ/ZA6u/DQfdE7AdaMOgKn/Wg+b4sAALqClaHCFNcrgcZYWEbnGQ8T0Vv1XSTcrKlaVLGTsrCbug4SGiIWp4IV3KkqkBCarWuFS/9t5n1j3LrvWwrI3kP8bsL656EYcd9k7st9/+OPLIo3DGGWfgK1/5Ck4++WTMmzcPe++9F+P9ebj2hqtRr5WQk0cRkpNZflphZJasRsM+HKGRpBqwjqs+hdMc5KxiRYQ6J3Q2DzuWNgzqxsgnuH4VvT0RVi1/iaKUTfJ2RcShRcaMBCzVJEvTh1UI7zuDgpOXmTNvTbV3W3lovPgvigk7B6JUKhmIQ0NDuPnmW/DQQw/h4Ycfxi9/+Us71/Fb37oOW8/eDpdcchn23msvfOYzp+GRRxdRQp61rdCrV26P4dV5TN2KDCK/0CJCik/CdpGzjbTDTxxgQUxbR9rolYPaLCd0hpErNDBlYg7Ln66TWTpXsGEiMtIhbILEPFYjhRuNjhvF9GCeoyod5rUMRbZgopSygxmoGRXyBfY5NRG/6667UK/X6ZE8hkqlgoGBAfT392Pq1KnYbbfd8J73HI0rr7wG9933c5x66sfwox/fhbnz5uLMs5ZiTfg2DLLeXqqBA98sJ66pzzioiVzKEeJAG7Bi487UFajqdEuHGaq8lpdCDw6zphax4o/AytUTs5e7IqHSSmoCuaHZEo2NL86IH2VVy+G5IY1Mg2+yE9mGKVafJRl2pfPOu4AgnYqDDjrI0r333otDDz2UIL4Hy5Yto9HKm6FSQBIS9FKpgBNOPBH3/OSnmP+Nb+JHD8Z429xF+NXjQ7jh9gNRpN8qt06MkjJ8k+GEQ1XHwc3aLOLRJGgsdQVqJzJJrTawx+4TMTTo4+FHXwmo7dRspOZmaZWzxTha8/hJ6tI/UcWQWwmsHmgOwZFTr/lbDqzcpWXL/ogbb7wRF198Ma655ho73nHHHWaknn/+eRx77LEm/i33ShyoAZEX1t8/AX9/+LFY+B1y7FEfwFlnAuee+2ssXfMsB3cSB0KLgjRorpa5yZ2mT2VNNbhyD5p6dhRtGFRjJP5h0iS0S7fGDIPpGboiLLDRCDBn2zJ91Aj3/ZqdzbPhQcoIRuxGm2ycTSMgPuOpjE0qkW+znAoxxQ3aqhPTh/T0XKuxzDA8/ATzrEagr7hDl0eWEGkKMVMG4sCVK5ejUivjmGOOUmkEgo4EXShx6k/IibvuuhuOPOLdBJ/qRP9UPUuNYqosGiXt2J8xdSbOO/scfIcew8NLJuGAwxLc++Px8AZKGJY7p36BkRoNVuRTNQRqM+/roz1i61MCRKHwZre8f/niP59lOzui38KtfS+724Ey90ZjkD330yIbSDem5CPJ9WHhzctxwskFRNWE3pGCf4JPyyltaAPDJIj1/aZEPCuPxEN2X+vxhN9EnO+6HirOMyh4uyBubMfOKMqVGIb2nZeWwBtRhNWrV9Nt+gYef/xJLFiwEHfeeTeefPIplpFiEl29uXMPZrS3HXbeZWcOgty0rA/6p3a5TLGMHY/Tpk3H4e/6e7y0popLv/YAXlqVx75vmYU8hiiZmuHKsW62Vv9J11tZUovZjFgtHQ+/7whDqQsSq496tVGx2aKctwbvPjpg3N+Dr182EfmeyXwYIq01yHAUD2t7Bqr+aR9spuSZzKnXURPJsvoCWvd4TenoixYjHbqWnsAfySUlhLkaPR2Flw1yfoQg8PH9799poBQKJUycsBWqlRq+etnXccABB2L//fbB4iWPGhf39hYtT9aOrE0CUiTVoHA2DENMmDABl112GU676GJc8LUKTjzhT+zNtrSIZCQtbrIdDnWuJBeedBUH2lSC1JdwIsAbXKNqI+11Ms7SI+k2HhwZEy/PztbJRT346sX9mH9FniLk442zabmob+FLD7EiK1IqQGIkjmTjdI8p41I20k6aqXnQ8nfoFeBO+ih94dNRbkyheihbfmUuD1exzz774tjj3ot//dJZYk6qpAiDg0NYsmQxrrxqPh544AHcfffddKVm2/NOGi8zYuJEqh+Cq6MM8c9/cx8+ddLZ2Kr3MVx4iYNdtqZur1XYLam0wPruUx3GbKd22AxqQn3ala+AUw0ZQ2eEwgaddDrsuXAYH/gAn42Lcc7ZZQy72yMqMjpR30nqTGYkNPkhrs3uryOBTfNEjo2IbqxZKK1fU+CDtIzq2lsRDt6CYrqCqoUdMw43hAyQfCGgKqhQT1Yttu/vL2Hf/d6C6751A2668Rb6ndPJhazfdPlYEoeKW6WL1U4xUED1st+e78AN374WVW8PvPf9IRY9Ogd+/yzaE76jEFhBgYKDZrKNblrSaZb78pTKsZcyZmKHpB1lqX3tj2LfpFq2Gv8Cbr6hiEUPrcDnz1pGgzWOo89KE31bRGvtUwc7FB19KC9XhG6pilV7FJi49DUlTdpSqqN5F1rASwL01dfCH/wagqGrEdTL9Ax6UE/zKPSPxzHv+xBuuflW6l0OgNOL8uBa1kUxp1FNCczub9zN1IQXUMersR1I8wMaHOnp1hxBjf3TT55sM2Mmrr/5Wmyz00F470cfp0HuhdM7nhzAhrIvOnjshEyBbYcVHt2Iv7GabrdYzEZcjWQpfKZlEj2P80Us+F4On/tsHR8+YSY+efIalKI1jLbkxjCeVw462OJCFaWBVj/F0eRhXmQdalFMtNkvTQtA8UzozAT63oqeCUcgasxFjWHy4PBS/K/j/oGDU8LMmVPx4G9+Rf1JA/PWA3DS8Sdihx13QhjR16VYy7B4NkmzcdIyTdRgu9k/n9Hj8PAwTj3tZNy14DbcfP0szDt4BbBaHRhg4yqIi2ViPBnutJdb928nA1VKmL0z0RObk9sMEf2ne2TKOsHqmYqF/5HDP53yEuYeFOLaC/8HCqUnENVWSpczrqfOV1nZeLA41mdliDXXJ6kCcTSjcuLdIHfyPbpbYbgTgsJc5Me9EW5hWzy9rIF3HXk8Vg81cOmll2H5sy/i2quuxZNPPYJbFyzAIXMPQZ1uj0yUeSNdkHxh069iGg6GqQhGVqedehru/vZ82o/xmHsgS3uphpwgy9VRjfvgzb66S1Ct14rBCYZAlV7Te2I3PRLn8ujU+byHHl2Qww9+si0uuPB5+ATmIycmeOchJUxhUIKG1oBoKcmxxuWmQlimxmVM1RJhqQCOhgZCdctAMos2Dce5ibTM26A04Y24cUEV513wGzyw6D705Hux+oUy7v/5z/CmPffEtBnTWbw11H6dpxty6CmYn6165cLJ0XbqNKjj8LlPfBLfX3g5Lr1qK7zrgAoaa16gD+2h3pgGzLi6Sz9Vt6QHlUxpUIR1sGd0xHluV8JHrg5B2GWvP+Ht83w88tgO+OoFS/EAQfYKEebs2qA6GAc310+nOpe5SFrOpvuVMiU+Y+1m0g4TJ1dAXPAQ5UOqF4pkXssjtM4cOLhr4BefR6W+CH19Dm67+Q9YtSrAgQe9jZ0sYfc9dkWxVDKdKusuQyRsu6F8oIiNSkntYMcUtDhsp0sl+o5DDsPiP/we519wP/beeza234kGlsbac6bA7TuyS04VauLSdvG399oTSZIl4yRdqKgn56NaLODB//Sx4OY87v2PtUjYsG2n57HDDtOx3Y7TUeoVQPQispFZj2RotNSsDqXNpe1ML1I/s8NpwqiIz3vzZbxl/wh3/KSCz326gtP++Xh87JRPYmBcLz076lOCqgVDn1GedLqkw9adZMxYpsc+6dL60fTH04Tei+6QA821llRa4MG2Un8Pl+v42Mc/hQd/fjWuu+YN2Gv3xaismYXCzBu7Ff9OlFW+MdK2IL9Axzs3GU8udfGLX67Afffn8NQTw1i5XI58iaJJDmTYayFsG2lJOuv2OpIFl26U29OK5/vzoKoBDjm4hNtvA/7l3BcwZft5OP+i0/E3u++J6nBElaCVBTIGPQNfnMsBi8XxOaqDuKnOzABzAK3K9esVeUGEynCFgUYf1ZCHaq2Ok096Hx687/v47h3TMX2mg3zflZsCapfv0T+UTrKgnAwjm1N2ZtAiFxHWS7SwPeRIxvaosshRxmq9WaEWyXDonhIhJgIewe/JLUUhWEpuzOPRJXNw/qV/xE8fLODo9x+Dc88534xd2uDw5ahKaNUzLmQZPPHMDVlHxsRq8yhSvVoPk6+t3YVxojB5EO9///GIBn+Kq647ADvs9E+bAmp3JGVPg82R1fJwBoi5guQKLbzJHUvplHbm+w21pf0+EWAdaUS/sqSO5pGjWohqk/GNGybi/9y4HBO22QtfPvtM7P+WPVCnMfXYoCxcVkmShezcymLRmSSMBVU20vxfC3d1Tm0X17D8pRAfOupYuPU/YOFdl3cpwx1JY73xpLlI+36JjXQDuiA5dkDWnkC4KYOBpJcxf8mc6NHJYjBy4diUfaQhMOyaNUmsGTXSMSHHxwMsvoxTTn4M375pNry1D+OYIw7HTQvvRJDPm9Ey9cFK5LUZkpZEvGGGmOWOSp79hlJCw6eJGXJ+rP3bOcyePgWXX34FJeQF/O7R4kasv1VIaru1jloNefmkEZd7YntYVaD8Uo/WnYeUvqfmB2SEZKgkjZaYU5N79tIGki0bi9PNeBJeXdJ4+Q7VSlKGX2ogrgeY0lfDe46h8172ceG//Zgh5jDe+ub9bMJaPyOn5TFFigYa3S0zYCR5tGNJOlyAszIjHT2Uy8OYNXscdnvDvpi53ZyXEX8ru4mqeP01JTWYZROMVh2GEY8uT8TIEkF7Yt7GRkh5rYnZiXkMLnk5JFDycYsh4/ftcNvtET5/+nK898PH418v+LJtvPAoLTk67jG5ToYs0EZh7WgZAe7lKWKsLa7XdKRcMKmWTRD/TaVWo5tHQ7W9I1IdglX3Np4sVpJUyP2iiCoS88n2Dn3jWAJRfxrvO3wNLr+E4N5yLU777JcYZUl6hgmGyqCkUI3WQ01e67o7UoSm0De2YCahEaQL13z2/5maYEh0rQNS/jy1JDCbr+jA48aSypFfbEvdinyoK6ltzLBortXP+wxIAgIb4p1vfxIXXzQDC664GpecfzGd/Dwa5OiGPAJyqAxna5tQNySpSCLqWebR9w4Bg4b/Zk5V9TqKWueta4JjnNoNMY+AJcdJdejSC2iE8uQizS43xLHkwHwVTtXBEXOX4ob5M3HT/PNx/oX/jmJRX7UwmzwRjka9rhm57sj2P1A6Yhk/SkgsTnXkOFo/Wrqr2RHWosnjVyAJ3ZOqMA9AdfKClUiDyjitV529t/Fk+1+Z0X5E1o4qhV20tSMaFnFsyHBXP4oIdnpNisMOfgGnnDIR555xHhYu/LbNF8hI+QyVtazTmdorzg7yPpTP1cKlANaHGIwBMgClhNbrkcJDZno9eFlOvgyQGaGskWqBRnodZcB0RVYWAWwv04BWfnIQw2YPdYKlbZYSbYJbX4UTPljExz7s4nOfOQ2PLn6Uzxj52aTJhiZdsrbaP5bfunIo9tI6tpOGkdYGIGvdfj0Q/e+jTB4IRKCVXmBc8Ay+cGoeu249iI9/+vMo66M2rTDqi+xO1Ir4RsQ3m9Qek5pP1ydjT6UuOeXPljJeak9UtdQ6NXjUt3SfURpXxtlnTMCiB36IK775deQC/S631vk70EgYLWxY3uiwukkdQG0HUuebO7BtpK7QwU+jHJKqPmAjsG4Ve+2+HBedMwvzLzwfP/vZXSh5G9oY0g4qiUFLK9pqT66snYlFS3nqaHopi4CyH7recijUhxgMleWTaiJGHxKjkuLdhw5it+1jXPbvl5vhkeGmJJOrhYXwUW5h0VIiNkK62UaZNLgJRUHAKY6lNheMGagKHVmwNsluvtSStGZiP33qwySle2Xul7gqplvroD+o4N/O2haPPXQP5l93Jd/W8gmNm2aw6OvqU1AtYlo5xEdRlJNqn6sA5+A0AVXgoWCOYkAANSnD+2Yw20n+yJZE5E4B0rywlGhSnWr0b/Z8Ee9/Xz8uOOccLH1mFQMHWXQynddAoNXHDiQYrbym6OsOQWUYx9xyBRqhRoElSeRtpr95vQWR/V825LqZBRdQTOK6oIZ07Up86IMJaquX4sbrv4NifpxNoMRpGWH8vLKPJWNElcVSm9OJ9Ld5w9UeofHk6sl8Q2iLxLrMkymTLYPEpTqozwYEExkoYCQlP1Mh54zxa3HOl/tww82XY+myZ3mvQJAKKBQUOIylTOwzas1wEVTGrKwgCMYztJtg9dBRs5FUBhvQ9ajZmM2S2tre6oKYiCGmtvHIOOeTHI4+OsTAxDLOO+9c3iKoLqOtuGjwZbC1Mmd3MkbluUDlf64Wsci3fG8GKvltEFEx64ex9F24RjTS+r69nGWwiUttx9gciRySxHSpqNqMYahLpU/VHdfXtkreT0L0E9jjjvNxx4If4pnnltpsVhR5iKk6tFqhyCmDI/ty27G9q/KWsjFyHb9mQCbujvAKJyGKJ9lELtmX/kcRgTzkdlKuERWxuZHEv+kq8sq6kj3gI/WJQMswE9gj/m4VCqU/4bY7/y+NVAHFJAPPfuFNOtnyMCRloB+J0zWXSj9NU49uEFSReGuhfRBOcR+4+cMQakk3VyHk5abq0UMlXphu31xBVRcyUNqBNbkzgDPQk7iObXo9/OMJu+CW629BLVwN5MNmvszQaRJH78rm2OY7DQoLlHS7oH/qcBTsf//j5eCXvoikcAQqjDwaBDdJ9Zmhm0m9Eiu2XyfbLIkdb82OZfLLZJ3KuJZ/LPHcjRIc+c4y6qsWYeFN30WNutWxDSWaSyOobp1iTiknl1q839ysJ3LTRpEFlOhb6WeI8ig709A//nR46cdRDqlncyualTf1qCrNTjqkzYA6NrN5syWJukwbmDPzT9h9u4Sg3oZhu0dQ7aE4VrNiIUFdN6lielocXK3UsqFpkaaubKvLc8xzF5L6j+GufopBhTbFar2cuoWcOhLWWiVMuu72B7I2A4q1GyVfxA/umoSPn/4EFtz3Y+yz8zYIa/oljhq7rClCGnl9ZShuNxwyTJxqtdqGKG+7w3R2e/lKHn6cwo8qaBRvZ4CgIEEfycpwadVSfqwKEjUBtu+LtgxyNfdazxPAabjn5yuwy94HYtvxW6NSoY+Qp7qUt5AW5S/wbTFVC1gGEtVamTybOfq64cbach5ypLRmQ7amC2LbzJlZSjjTOzwqhmsWsi5tOdFXJHGus//6kFiG2WUAQCkN2UW/RAajKxaGJeTESCNS2+LU2pActuYNKmFtb3Zp1ViQfjJLv2cajPJLM0PXCdT1mH6zppo7RCx95N0+upmrEehHFOIBNLQCGwyTMRnjYyLxas29rsPBqdUFqjg1A9V1KtSdApMjZWaQnKmNXXqdXkCWkaqXI5UR742M1JZDHn31lLwZR0X4Of1QTYgaz/W1tesPoRGG8LVzOmj9iE2GHwD8F5B8OTOFqFzxAAAAAElFTkSuQmCC;" vertex="1" parent="1">
          <mxGeometry x="688" y="409.25" width="28.97" height="30" as="geometry" />
        </mxCell>
      </root>
    </mxGraphModel>
  </diagram>
</mxfile>
